<svg width="124" height="24" viewBox="0 0 124 24" fill="none" xmlns="http://www.w3.org/2000/svg">
<g clip-path="url(#clip0_11686_166837)">
<path d="M4.15066 17.738C3.86251 17.738 3.62891 17.5044 3.62891 17.2163V6.78152C3.62891 6.49337 3.86251 6.25977 4.15066 6.25977C4.43881 6.25977 4.67242 6.49337 4.67242 6.78152V17.2163C4.67237 17.5044 4.43881 17.738 4.15066 17.738Z" fill="#455A64"/>
<path d="M6.23855 15.6511C5.95041 15.6511 5.7168 15.4175 5.7168 15.1293V6.78152C5.7168 6.49337 5.95041 6.25977 6.23855 6.25977C6.5267 6.25977 6.76031 6.49337 6.76031 6.78152V15.1294C6.76031 15.4175 6.5267 15.6511 6.23855 15.6511Z" fill="#455A64"/>
<path d="M8.32449 15.6511C8.03634 15.6511 7.80273 15.4175 7.80273 15.1293V6.78152C7.80273 6.49337 8.03634 6.25977 8.32449 6.25977C8.61264 6.25977 8.84625 6.49337 8.84625 6.78152V15.1294C8.84625 15.4175 8.61264 15.6511 8.32449 15.6511Z" fill="#455A64"/>
<path d="M10.4124 15.6511C10.1242 15.6511 9.89062 15.4175 9.89062 15.1293V6.78152C9.89062 6.49337 10.1242 6.25977 10.4124 6.25977C10.7005 6.25977 10.9341 6.49337 10.9341 6.78152V15.1294C10.9341 15.4175 10.7005 15.6511 10.4124 15.6511Z" fill="#455A64"/>
<path d="M12.4983 17.738C12.2102 17.738 11.9766 17.5044 11.9766 17.2163V6.78152C11.9766 6.49337 12.2102 6.25977 12.4983 6.25977C12.7865 6.25977 13.0201 6.49337 13.0201 6.78152V17.2163C13.0201 17.5044 12.7865 17.738 12.4983 17.738Z" fill="#455A64"/>
<path d="M14.5862 15.6511C14.2981 15.6511 14.0645 15.4175 14.0645 15.1293V6.78152C14.0645 6.49337 14.2981 6.25977 14.5862 6.25977C14.8744 6.25977 15.108 6.49337 15.108 6.78152V15.1294C15.108 15.4175 14.8744 15.6511 14.5862 15.6511Z" fill="#455A64"/>
<path d="M16.6721 15.6511C16.384 15.6511 16.1504 15.4175 16.1504 15.1293V6.78152C16.1504 6.49337 16.384 6.25977 16.6721 6.25977C16.9603 6.25977 17.1939 6.49337 17.1939 6.78152V15.1294C17.1939 15.4175 16.9603 15.6511 16.6721 15.6511Z" fill="#455A64"/>
<path d="M18.76 15.6511C18.4719 15.6511 18.2383 15.4175 18.2383 15.1293V6.78152C18.2383 6.49337 18.4719 6.25977 18.76 6.25977C19.0482 6.25977 19.2818 6.49337 19.2818 6.78152V15.1294C19.2818 15.4175 19.0482 15.6511 18.76 15.6511Z" fill="#455A64"/>
<path d="M20.846 17.738C20.5578 17.738 20.3242 17.5044 20.3242 17.2163V6.78152C20.3242 6.49337 20.5578 6.25977 20.846 6.25977C21.1341 6.25977 21.3677 6.49337 21.3677 6.78152V17.2163C21.3677 17.5044 21.1341 17.738 20.846 17.738Z" fill="#455A64"/>
<path d="M6.23672 17.7379C6.16824 17.7402 6.10021 17.7259 6.03848 17.6961C5.97323 17.6742 5.91541 17.6344 5.87154 17.5813C5.66982 17.3895 5.6618 17.0705 5.85364 16.8688C5.85946 16.8627 5.86542 16.8568 5.87154 16.8509C5.91536 16.7978 5.97323 16.758 6.03848 16.7361C6.23217 16.6564 6.45492 16.7017 6.60196 16.8509C6.80367 17.0567 6.80044 17.387 6.59467 17.5887C6.49894 17.6826 6.37079 17.736 6.23672 17.7379Z" fill="#455A64"/>
<path d="M8.32461 17.7377C8.25613 17.74 8.1881 17.7257 8.12637 17.6959C8.06112 17.674 8.0033 17.6342 7.95943 17.5811C7.75771 17.3893 7.74969 17.0703 7.94153 16.8686C7.94735 16.8625 7.95331 16.8565 7.95943 16.8507C8.00325 16.7976 8.06112 16.7578 8.12637 16.7359C8.31997 16.6549 8.54335 16.7005 8.68985 16.8507C8.74292 16.8946 8.78268 16.9524 8.80465 17.0177C8.86031 17.144 8.86031 17.2879 8.80465 17.4142C8.78288 17.4795 8.74311 17.5375 8.68985 17.5811C8.59579 17.6827 8.46304 17.7396 8.32461 17.7377Z" fill="#455A64"/>
<path d="M10.4125 17.7377C10.344 17.74 10.276 17.7257 10.2143 17.6959C10.149 17.674 10.0912 17.6342 10.0473 17.5811C9.8456 17.3893 9.83758 17.0703 10.0294 16.8686C10.0352 16.8625 10.0412 16.8565 10.0473 16.8507C10.0911 16.7976 10.149 16.7578 10.2143 16.7359C10.4079 16.6549 10.6312 16.7005 10.7777 16.8507C10.8308 16.8946 10.8706 16.9524 10.8925 17.0177C10.9482 17.144 10.9482 17.2879 10.8925 17.4142C10.8708 17.4795 10.831 17.5375 10.7777 17.5811C10.6837 17.6827 10.5509 17.7396 10.4125 17.7377Z" fill="#455A64"/>
<path d="M14.5847 17.7382C14.2966 17.7342 14.0663 17.4973 14.0704 17.2092C14.0723 17.0752 14.1256 16.947 14.2195 16.8513C14.4224 16.6524 14.7471 16.6524 14.9499 16.8513C15.003 16.8951 15.0428 16.953 15.0647 17.0182C15.1204 17.1445 15.1204 17.2884 15.0647 17.4147C15.043 17.4801 15.0032 17.538 14.9499 17.5817C14.8559 17.6832 14.7232 17.7402 14.5847 17.7382Z" fill="#455A64"/>
<path d="M16.6726 17.7382C16.3845 17.7342 16.1542 17.4974 16.1583 17.2093C16.1601 17.0752 16.2135 16.947 16.3074 16.8513C16.5103 16.6524 16.835 16.6524 17.0378 16.8513C17.2395 17.057 17.2363 17.3874 17.0305 17.5891C16.9348 17.6829 16.8066 17.7363 16.6726 17.7382Z" fill="#455A64"/>
<path d="M18.7601 17.7382C18.6216 17.7402 18.4889 17.6833 18.3948 17.5817C18.3416 17.538 18.3017 17.4802 18.28 17.4148C18.2244 17.2885 18.2244 17.1446 18.28 17.0182C18.3019 16.9529 18.3417 16.8951 18.3948 16.8513C18.5977 16.6524 18.9224 16.6524 19.1252 16.8513C19.327 17.057 19.3237 17.3874 19.118 17.5891C19.0223 17.6829 18.8941 17.7363 18.7601 17.7382Z" fill="#455A64"/>
<path d="M1.02176 7.30378C0.733609 7.30378 0.5 7.07022 0.5 6.78207V3.65164C0.5 3.36349 0.733609 3.12988 1.02176 3.12988H4.15219C4.44033 3.12988 4.67394 3.36349 4.67394 3.65164C4.67394 3.93978 4.44033 4.17339 4.15219 4.17339H1.54346V6.78207C1.54346 7.07022 1.3099 7.30378 1.02176 7.30378Z" fill="#2196F3"/>
<path d="M4.15219 20.8693H1.02176C0.733609 20.8693 0.5 20.6356 0.5 20.3475V17.2171C0.5 16.9289 0.733609 16.6953 1.02176 16.6953C1.3099 16.6953 1.54346 16.9289 1.54346 17.2171V19.8257H4.15214C4.44029 19.8257 4.67389 20.0594 4.67389 20.3475C4.67389 20.6356 4.44033 20.8693 4.15219 20.8693Z" fill="#2196F3"/>
<path d="M23.9784 7.30378C23.6902 7.30378 23.4566 7.07017 23.4566 6.78202V4.17334H20.8479C20.5598 4.17334 20.3262 3.93974 20.3262 3.65159C20.3262 3.36344 20.5598 3.12988 20.8479 3.12988H23.9784C24.2665 3.12988 24.5001 3.36349 24.5001 3.65164V6.78207C24.5001 7.07022 24.2665 7.30378 23.9784 7.30378Z" fill="#2196F3"/>
<path d="M23.9784 20.8693H20.8479C20.5598 20.8693 20.3262 20.6356 20.3262 20.3475C20.3262 20.0594 20.5598 19.8257 20.8479 19.8257H23.4566V17.2171C23.4566 16.9289 23.6902 16.6953 23.9784 16.6953C24.2665 16.6953 24.5001 16.9289 24.5001 17.2171V20.3475C24.5001 20.6356 24.2665 20.8693 23.9784 20.8693Z" fill="#2196F3"/>
<path d="M4.15261 17.739C3.86447 17.739 3.63086 17.5054 3.63086 17.2173V6.7825C3.63086 6.49435 3.86447 6.26074 4.15261 6.26074C4.44076 6.26074 4.67437 6.49435 4.67437 6.7825V17.2173C4.67432 17.5054 4.44076 17.739 4.15261 17.739Z" fill="#009900"/>
<path d="M6.23855 15.652C5.95041 15.652 5.7168 15.4184 5.7168 15.1303V6.7825C5.7168 6.49435 5.95041 6.26074 6.23855 6.26074C6.5267 6.26074 6.76031 6.49435 6.76031 6.7825V15.1303C6.76031 15.4184 6.5267 15.652 6.23855 15.652Z" fill="#009900"/>
<path d="M8.32644 15.652C8.0383 15.652 7.80469 15.4184 7.80469 15.1303V6.7825C7.80469 6.49435 8.0383 6.26074 8.32644 6.26074C8.61459 6.26074 8.8482 6.49435 8.8482 6.7825V15.1303C8.8482 15.4184 8.61459 15.652 8.32644 15.652Z" fill="#009900"/>
<path d="M10.4124 15.652C10.1242 15.652 9.89062 15.4184 9.89062 15.1303V6.7825C9.89062 6.49435 10.1242 6.26074 10.4124 6.26074C10.7005 6.26074 10.9341 6.49435 10.9341 6.7825V15.1303C10.9341 15.4184 10.7005 15.652 10.4124 15.652Z" fill="#009900"/>
<path d="M12.5003 17.739C12.2121 17.739 11.9785 17.5054 11.9785 17.2173V6.7825C11.9785 6.49435 12.2121 6.26074 12.5003 6.26074C12.7884 6.26074 13.022 6.49435 13.022 6.7825V17.2173C13.022 17.5054 12.7884 17.739 12.5003 17.739Z" fill="#009900"/>
<path d="M14.5862 15.652C14.2981 15.652 14.0645 15.4184 14.0645 15.1303V6.7825C14.0645 6.49435 14.2981 6.26074 14.5862 6.26074C14.8744 6.26074 15.108 6.49435 15.108 6.7825V15.1303C15.108 15.4184 14.8744 15.652 14.5862 15.652Z" fill="#009900"/>
<path d="M16.6741 15.652C16.386 15.652 16.1523 15.4184 16.1523 15.1303V6.7825C16.1523 6.49435 16.386 6.26074 16.6741 6.26074C16.9622 6.26074 17.1959 6.49435 17.1959 6.7825V15.1303C17.1958 15.4184 16.9622 15.652 16.6741 15.652Z" fill="#009900"/>
<path d="M18.76 15.652C18.4719 15.652 18.2383 15.4184 18.2383 15.1303V6.7825C18.2383 6.49435 18.4719 6.26074 18.76 6.26074C19.0482 6.26074 19.2818 6.49435 19.2818 6.7825V15.1303C19.2818 15.4184 19.0482 15.652 18.76 15.652Z" fill="#009900"/>
<path d="M20.8479 17.739C20.5598 17.739 20.3262 17.5054 20.3262 17.2173V6.7825C20.3262 6.49435 20.5598 6.26074 20.8479 6.26074C21.1361 6.26074 21.3697 6.49435 21.3697 6.7825V17.2173C21.3697 17.5054 21.1361 17.739 20.8479 17.739Z" fill="#009900"/>
<path d="M6.2382 17.7391C6.16972 17.7412 6.10174 17.7269 6.03996 17.6974C5.97476 17.6753 5.91699 17.6356 5.87302 17.5826C5.6713 17.3899 5.66396 17.0702 5.85663 16.8686C5.86196 16.863 5.86744 16.8575 5.87302 16.8522C5.91694 16.7992 5.97476 16.7594 6.03996 16.7374C6.16699 16.6852 6.30947 16.6852 6.4365 16.7374C6.50184 16.7592 6.55971 16.799 6.60344 16.8522C6.80515 17.0579 6.80193 17.3883 6.59615 17.59C6.50043 17.6838 6.37227 17.7372 6.2382 17.7391Z" fill="#009900"/>
<path d="M8.32598 17.7391C8.03784 17.7356 7.80711 17.4992 7.81059 17.2111C7.8122 17.0766 7.86561 16.948 7.95972 16.8521C8.10592 16.7013 8.32965 16.6557 8.5232 16.7373C8.58855 16.7591 8.64641 16.7989 8.69014 16.8521C8.89186 17.0578 8.88863 17.3882 8.6829 17.5899C8.58742 17.6835 8.45966 17.7369 8.32598 17.7391Z" fill="#009900"/>
<path d="M10.4119 17.7389C10.1238 17.7354 9.89305 17.499 9.89652 17.2109C9.89814 17.0765 9.95155 16.9479 10.0457 16.8519C10.0896 16.7989 10.1474 16.7592 10.2126 16.7371C10.4063 16.6573 10.629 16.7027 10.7761 16.8519C10.9778 17.0576 10.9746 17.388 10.7688 17.5897C10.6731 17.6836 10.5449 17.737 10.4108 17.7388H10.4119V17.7389Z" fill="#009900"/>
<path d="M14.5859 17.7391C14.5175 17.7402 14.4497 17.726 14.3876 17.6974C14.3224 17.6753 14.2646 17.6356 14.2207 17.5826C14.019 17.3899 14.0116 17.0702 14.2043 16.8686C14.2096 16.863 14.2151 16.8575 14.2207 16.8522C14.2646 16.7992 14.3224 16.7594 14.3876 16.7374C14.5146 16.6852 14.6571 16.6852 14.7842 16.7374C14.8495 16.7592 14.9074 16.799 14.9511 16.8522C15.1528 17.0579 15.1496 17.3883 14.9438 17.59C14.8481 17.6838 14.7199 17.7372 14.5859 17.7391Z" fill="#009900"/>
<path d="M16.6737 17.7382C16.6054 17.7393 16.5376 17.7251 16.4755 17.6965C16.4103 17.6744 16.3525 17.6347 16.3086 17.5817C16.1068 17.3891 16.0995 17.0694 16.2922 16.8677C16.2975 16.8621 16.303 16.8566 16.3086 16.8513C16.5115 16.6524 16.8361 16.6524 17.039 16.8513C17.2407 17.0423 17.2494 17.3606 17.0584 17.5623C17.0521 17.569 17.0456 17.5754 17.039 17.5817C16.9952 17.6349 16.9373 17.6747 16.872 17.6965C16.8099 17.7252 16.7421 17.7395 16.6737 17.7382Z" fill="#009900"/>
<path d="M18.7603 17.7388C18.6919 17.7399 18.6242 17.7257 18.562 17.6971C18.4968 17.675 18.4391 17.6353 18.3951 17.5823C18.2937 17.4882 18.2368 17.3555 18.2386 17.2171C18.236 17.1486 18.2503 17.0805 18.2803 17.0188C18.3019 16.9536 18.3412 16.8958 18.394 16.8519C18.4379 16.7989 18.4958 16.7592 18.561 16.7371C18.7547 16.6573 18.9774 16.7027 19.1244 16.8519C19.1772 16.8961 19.2169 16.9538 19.2392 17.0188C19.2692 17.0805 19.2836 17.1486 19.281 17.2171C19.2733 17.502 19.0441 17.7312 18.7592 17.7388H18.7603Z" fill="#009900"/>
<path d="M1.02176 7.30378C0.733609 7.30378 0.5 7.07022 0.5 6.78207V3.65164C0.5 3.36349 0.733609 3.12988 1.02176 3.12988H4.15219C4.44033 3.12988 4.67394 3.36349 4.67394 3.65164C4.67394 3.93978 4.44033 4.17339 4.15219 4.17339H1.54346V6.78207C1.54346 7.07022 1.3099 7.30378 1.02176 7.30378Z" fill="#009900"/>
<path d="M4.15219 20.8693H1.02176C0.733609 20.8693 0.5 20.6356 0.5 20.3475V17.2171C0.5 16.9289 0.733609 16.6953 1.02176 16.6953C1.3099 16.6953 1.54346 16.9289 1.54346 17.2171V19.8257H4.15214C4.44029 19.8257 4.67389 20.0594 4.67389 20.3475C4.67389 20.6356 4.44033 20.8693 4.15219 20.8693Z" fill="#009900"/>
<path d="M23.9784 7.30378C23.6902 7.30378 23.4566 7.07017 23.4566 6.78202V4.17334H20.8479C20.5598 4.17334 20.3262 3.93974 20.3262 3.65159C20.3262 3.36344 20.5598 3.12988 20.8479 3.12988H23.9784C24.2665 3.12988 24.5001 3.36349 24.5001 3.65164V6.78207C24.5001 7.07022 24.2665 7.30378 23.9784 7.30378Z" fill="#009900"/>
<path d="M23.9784 20.8693H20.8479C20.5598 20.8693 20.3262 20.6356 20.3262 20.3475C20.3262 20.0594 20.5598 19.8257 20.8479 19.8257H23.4566V17.2171C23.4566 16.9289 23.6902 16.6953 23.9784 16.6953C24.2665 16.6953 24.5001 16.9289 24.5001 17.2171V20.3475C24.5001 20.6356 24.2665 20.8693 23.9784 20.8693Z" fill="#009900"/>
</g>
<path d="M38.9721 18.7304C37.8969 18.7304 36.8665 18.5896 35.8809 18.308C34.8953 18.0136 34.1017 17.636 33.5001 17.1752L34.5561 14.8328C35.1321 15.2424 35.8105 15.5816 36.5913 15.8504C37.3849 16.1064 38.1849 16.2344 38.9913 16.2344C39.6057 16.2344 40.0985 16.1768 40.4697 16.0616C40.8537 15.9336 41.1353 15.7608 41.3145 15.5432C41.4937 15.3256 41.5833 15.076 41.5833 14.7944C41.5833 14.436 41.4425 14.1544 41.1609 13.9496C40.8793 13.732 40.5081 13.5592 40.0473 13.4312C39.5865 13.2904 39.0745 13.1624 38.5113 13.0472C37.9609 12.9192 37.4041 12.7656 36.8409 12.5864C36.2905 12.4072 35.7849 12.1768 35.3241 11.8952C34.8633 11.6136 34.4857 11.2424 34.1913 10.7816C33.9097 10.3208 33.7689 9.732 33.7689 9.0152C33.7689 8.2472 33.9737 7.5496 34.3833 6.9224C34.8057 6.2824 35.4329 5.7768 36.2649 5.4056C37.1097 5.0216 38.1657 4.8296 39.4329 4.8296C40.2777 4.8296 41.1097 4.932 41.9289 5.1368C42.7481 5.3288 43.4713 5.6232 44.0985 6.02L43.1385 8.3816C42.5113 8.0232 41.8841 7.7608 41.2569 7.5944C40.6297 7.4152 40.0153 7.3256 39.4137 7.3256C38.8121 7.3256 38.3193 7.396 37.9353 7.5368C37.5513 7.6776 37.2761 7.8632 37.1097 8.0936C36.9433 8.3112 36.8601 8.5672 36.8601 8.8616C36.8601 9.2072 37.0009 9.4888 37.2825 9.7064C37.5641 9.9112 37.9353 10.0776 38.3961 10.2056C38.8569 10.3336 39.3625 10.4616 39.9129 10.5896C40.4761 10.7176 41.0329 10.8648 41.5833 11.0312C42.1465 11.1976 42.6585 11.4216 43.1193 11.7032C43.5801 11.9848 43.9513 12.356 44.2329 12.8168C44.5273 13.2776 44.6745 13.86 44.6745 14.564C44.6745 15.3192 44.4633 16.0104 44.0409 16.6376C43.6185 17.2648 42.9849 17.7704 42.1401 18.1544C41.3081 18.5384 40.2521 18.7304 38.9721 18.7304ZM51.5806 18.6536C50.467 18.6536 49.475 18.4296 48.6046 17.9816C47.7342 17.5208 47.0494 16.8872 46.5502 16.0808C46.0638 15.2744 45.8206 14.3592 45.8206 13.3352C45.8206 12.2984 46.0638 11.3832 46.5502 10.5896C47.0494 9.7832 47.7342 9.156 48.6046 8.708C49.475 8.2472 50.467 8.0168 51.5806 8.0168C52.6686 8.0168 53.6158 8.2472 54.4222 8.708C55.2286 9.156 55.8238 9.8024 56.2078 10.6472L53.8846 11.8952C53.6158 11.4088 53.2766 11.0504 52.867 10.82C52.4702 10.5896 52.035 10.4744 51.5614 10.4744C51.0494 10.4744 50.5886 10.5896 50.179 10.82C49.7694 11.0504 49.443 11.3768 49.1998 11.7992C48.9694 12.2216 48.8542 12.7336 48.8542 13.3352C48.8542 13.9368 48.9694 14.4488 49.1998 14.8712C49.443 15.2936 49.7694 15.62 50.179 15.8504C50.5886 16.0808 51.0494 16.196 51.5614 16.196C52.035 16.196 52.4702 16.0872 52.867 15.8696C53.2766 15.6392 53.6158 15.2744 53.8846 14.7752L56.2078 16.0424C55.8238 16.8744 55.2286 17.5208 54.4222 17.9816C53.6158 18.4296 52.6686 18.6536 51.5806 18.6536ZM64.2684 18.5V16.484L64.0764 16.0424V12.4328C64.0764 11.7928 63.878 11.2936 63.4812 10.9352C63.0972 10.5768 62.502 10.3976 61.6956 10.3976C61.1452 10.3976 60.6012 10.4872 60.0636 10.6664C59.5388 10.8328 59.0908 11.0632 58.7196 11.3576L57.6444 9.2648C58.2076 8.868 58.886 8.5608 59.6796 8.3432C60.4732 8.1256 61.2796 8.0168 62.0988 8.0168C63.6732 8.0168 64.8956 8.388 65.766 9.1304C66.6364 9.8728 67.0716 11.0312 67.0716 12.6056V18.5H64.2684ZM61.1196 18.6536C60.3132 18.6536 59.622 18.5192 59.046 18.2504C58.47 17.9688 58.0284 17.5912 57.7212 17.1176C57.414 16.644 57.2604 16.1128 57.2604 15.524C57.2604 14.9096 57.4076 14.372 57.702 13.9112C58.0092 13.4504 58.4892 13.092 59.142 12.836C59.7948 12.5672 60.646 12.4328 61.6956 12.4328H64.4412V14.18H62.022C61.318 14.18 60.8316 14.2952 60.5628 14.5256C60.3068 14.756 60.1788 15.044 60.1788 15.3896C60.1788 15.7736 60.326 16.0808 60.6204 16.3112C60.9276 16.5288 61.3436 16.6376 61.8684 16.6376C62.3676 16.6376 62.8156 16.5224 63.2124 16.292C63.6092 16.0488 63.8972 15.6968 64.0764 15.236L64.5372 16.6184C64.3196 17.284 63.9228 17.7896 63.3468 18.1352C62.7708 18.4808 62.0284 18.6536 61.1196 18.6536ZM76.0608 8.0168C76.88 8.0168 77.6096 8.1832 78.2496 8.516C78.9024 8.836 79.4144 9.3352 79.7856 10.0136C80.1568 10.6792 80.3424 11.5368 80.3424 12.5864V18.5H77.3472V13.0472C77.3472 12.2152 77.1616 11.6008 76.7904 11.204C76.432 10.8072 75.92 10.6088 75.2544 10.6088C74.7808 10.6088 74.352 10.7112 73.968 10.916C73.5968 11.108 73.3024 11.4088 73.0848 11.8184C72.88 12.228 72.7776 12.7528 72.7776 13.3928V18.5H69.7824V8.1704H72.6432V11.0312L72.1056 10.1672C72.4768 9.476 73.008 8.9448 73.6992 8.5736C74.3904 8.2024 75.1776 8.0168 76.0608 8.0168ZM87.4926 18.7304C86.507 18.7304 85.6302 18.5704 84.8622 18.2504C84.0942 17.9304 83.4862 17.4952 83.0382 16.9448C82.5902 16.3944 82.3662 15.7608 82.3662 15.044C82.3662 14.3784 82.5134 13.7832 82.8078 13.2584C83.1022 12.7208 83.5694 12.2216 84.2094 11.7608C84.8494 11.2872 85.6622 10.8264 86.6478 10.3784C87.3646 10.0456 87.9278 9.7512 88.3374 9.4952C88.747 9.2392 89.035 8.996 89.2014 8.7656C89.3678 8.5224 89.451 8.2792 89.451 8.036C89.451 7.7032 89.3358 7.4344 89.1054 7.2296C88.8878 7.0248 88.5614 6.9224 88.1262 6.9224C87.6654 6.9224 87.307 7.0376 87.051 7.268C86.795 7.4984 86.667 7.7928 86.667 8.1512C86.667 8.3432 86.7054 8.5352 86.7822 8.7272C86.859 8.9064 87.0062 9.1176 87.2238 9.3608C87.4414 9.5912 87.7486 9.892 88.1454 10.2632L95.2302 16.8296L93.5982 18.7304L85.7838 11.4728C85.3358 11.0632 84.9774 10.6792 84.7086 10.3208C84.4398 9.9624 84.2414 9.6104 84.1134 9.2648C83.9982 8.9192 83.9406 8.5608 83.9406 8.1896C83.9406 7.5368 84.1134 6.9608 84.459 6.4616C84.8046 5.9624 85.291 5.5784 85.9182 5.3096C86.5454 5.028 87.2814 4.8872 88.1262 4.8872C88.907 4.8872 89.579 5.0152 90.1422 5.2712C90.7182 5.5144 91.1662 5.8664 91.4862 6.3272C91.819 6.788 91.9854 7.3384 91.9854 7.9784C91.9854 8.5416 91.8446 9.06 91.563 9.5336C91.2814 9.9944 90.8398 10.4296 90.2382 10.8392C89.6494 11.2488 88.875 11.6648 87.915 12.0872C87.2622 12.3816 86.7438 12.6696 86.3598 12.9512C85.9886 13.22 85.7198 13.4952 85.5534 13.7768C85.387 14.0584 85.3038 14.372 85.3038 14.7176C85.3038 15.0376 85.3998 15.3256 85.5918 15.5816C85.7966 15.8376 86.0782 16.036 86.4366 16.1768C86.795 16.3176 87.2174 16.388 87.7038 16.388C88.4846 16.388 89.2014 16.2088 89.8542 15.8504C90.507 15.4792 91.0574 14.9352 91.5054 14.2184C91.9662 13.4888 92.2926 12.6056 92.4846 11.5688L94.8846 12.3176C94.6158 13.6232 94.1358 14.756 93.4446 15.716C92.7534 16.676 91.9022 17.4184 90.891 17.9432C89.8798 18.468 88.747 18.7304 87.4926 18.7304ZM103.727 18.7304C102.665 18.7304 101.685 18.564 100.789 18.2312C99.9061 17.8856 99.1317 17.3992 98.4661 16.772C97.8133 16.1448 97.3013 15.4088 96.9301 14.564C96.5717 13.7192 96.3925 12.7912 96.3925 11.78C96.3925 10.7688 96.5717 9.8408 96.9301 8.996C97.3013 8.1512 97.8197 7.4152 98.4853 6.788C99.1509 6.1608 99.9317 5.6808 100.828 5.348C101.724 5.0024 102.709 4.8296 103.785 4.8296C104.975 4.8296 106.044 5.028 106.991 5.4248C107.951 5.8216 108.757 6.3976 109.41 7.1528L107.413 8.996C106.927 8.484 106.396 8.1064 105.82 7.8632C105.244 7.6072 104.617 7.4792 103.938 7.4792C103.285 7.4792 102.69 7.5816 102.153 7.7864C101.615 7.9912 101.148 8.2856 100.751 8.6696C100.367 9.0536 100.066 9.508 99.8485 10.0328C99.6437 10.5576 99.5413 11.14 99.5413 11.78C99.5413 12.4072 99.6437 12.9832 99.8485 13.508C100.066 14.0328 100.367 14.4936 100.751 14.8904C101.148 15.2744 101.609 15.5688 102.133 15.7736C102.671 15.9784 103.26 16.0808 103.9 16.0808C104.514 16.0808 105.109 15.9848 105.685 15.7928C106.274 15.588 106.844 15.2488 107.394 14.7752L109.161 17.0216C108.431 17.572 107.58 17.9944 106.607 18.2888C105.647 18.5832 104.687 18.7304 103.727 18.7304ZM106.319 16.6184V11.5688H109.161V17.0216L106.319 16.6184ZM116.754 18.6536C115.653 18.6536 114.674 18.4232 113.816 17.9624C112.971 17.5016 112.299 16.8744 111.8 16.0808C111.314 15.2744 111.071 14.3592 111.071 13.3352C111.071 12.2984 111.314 11.3832 111.8 10.5896C112.299 9.7832 112.971 9.156 113.816 8.708C114.674 8.2472 115.653 8.0168 116.754 8.0168C117.842 8.0168 118.815 8.2472 119.672 8.708C120.53 9.156 121.202 9.7768 121.688 10.5704C122.175 11.364 122.418 12.2856 122.418 13.3352C122.418 14.3592 122.175 15.2744 121.688 16.0808C121.202 16.8744 120.53 17.5016 119.672 17.9624C118.815 18.4232 117.842 18.6536 116.754 18.6536ZM116.754 16.196C117.253 16.196 117.701 16.0808 118.098 15.8504C118.495 15.62 118.808 15.2936 119.039 14.8712C119.269 14.436 119.384 13.924 119.384 13.3352C119.384 12.7336 119.269 12.2216 119.039 11.7992C118.808 11.3768 118.495 11.0504 118.098 10.82C117.701 10.5896 117.253 10.4744 116.754 10.4744C116.255 10.4744 115.807 10.5896 115.41 10.82C115.013 11.0504 114.693 11.3768 114.45 11.7992C114.219 12.2216 114.104 12.7336 114.104 13.3352C114.104 13.924 114.219 14.436 114.45 14.8712C114.693 15.2936 115.013 15.62 115.41 15.8504C115.807 16.0808 116.255 16.196 116.754 16.196Z" fill="#009900"/>
<defs>
<clipPath id="clip0_11686_166837">
<rect width="24" height="24" fill="white" transform="translate(0.5)"/>
</clipPath>
</defs>
</svg>
