<?xml version="1.0" encoding="UTF-8"?>
<svg version="1.1" viewBox="0 0 2000 2000" width="1280" height="1280" xmlns="http://www.w3.org/2000/svg">
<path transform="translate(0)" d="m0 0h2e3v2e3h-2e3z" fill="#FFFFFF"/>
<path transform="translate(969,133)" d="m0 0h2l1 12 10-6h2l1 801v127l-5 5-18 10-24 14-26 15-14 8-16 9-20 12-23 13-24 14-28 16-24 14-26 15-23 13-16 10-11 6-23 13-14 8-17 10-20 12h-3l-1-15-10 5-1-394-10 8-8 4-3 1h-19l-13-4-14-7-28-19-5-3 3 36 5 82 5 96 6 134 2 64-6-1-9-4-6-2-1 22-3 49-6 76-11 119-3 31-1 3-12 5-7 2-8 1h-9l-17-3-17-7-5-5-18-155-3-27-1-15v-35l2-22 1-9-10-48-4-20h-1l-14 77-11 54-29 125-22 95-7 30-1 3-4 2h-3v12l-1 16v26l2 25v21l-2 12-5 13-7 12-7 6-5 2h-10l-10-5-11-9-8-11-6-13-3-13-1-8v-11l3-20 7-27 5-17 1 4-9 37-3 13 14-3h25l15 4 9 6 3 4v-9l-1-11v-15l2-32 1-8-6 2-7 1h-16l-16-3-9-4-6-5-1-2-2-46-1-34v-110l2-31 5-39 5-29 1-3 16 4 25 5 25 3 25 1 4-112 5-159 2-85v-42l-21 11-4-1-5-16-1-16 2-11 4-10 5-5 15-4h3v-2l3-3v-14l-2-31-5-36-6-40-1-13v-16l1-15v-24l-11-18-8-15-6-4-8-9-5-11v-17l-6-21-2-15v-11l2-14 4-12 6-11 8-8 15-11 15-8 15-5 21-4h23l16 3 13 4 16 8 12 9 7 6 7 8 7 11 4 10 1 6v19l-4 13-7 13-8 10-3 4-1 28-3 15-5 12-5 7h-2v2l-10 7-8 3-6 1h-13v16h14l29 2 18 4 12 5 12 7 11 8 11 9 15 13 13 11 11 9 14 12 13 11 11 9v2l4 2 4-1 12-11 8-7 5-4 1-435 13-8 21-12 71-41 130-75 24-14 16-9 17-10 26-15 21-12 17-10z" fill="#F9F9F9"/>
<path transform="translate(1634,735)" d="m0 0 14 7 4 1h24l25-3h30l18 3 15 5 16 8 9 7 7 7 6 10 3 10 1 10 5 4 5 8 2 9v19l-4 18-7 16-9 15-12 16-9 10-7 8-12 13-6 7 1 13 2 15 17 1h12l21 4 17 8 14 12 10 14 8 15 10 23v2h6l8 4 10 8 8 6 7 9 4 10 3 18 1 76-2 8-5 60-6 50-6 38-8 36-7 20-6 10-10 9-18 13-17 11-6 4 31 259 1 15-3 2h-8l-3-2-2-7-6-37-11-65-25-149-6 2-10 6-11 7-11 6-23 13-16 8-11 5-22 9-17 6-14 4-17 5-2 1v11l24 265v9l-3 2h-8l-3-2-3-17-36-261v-4h-18l-15-3-5-2-5 27-5 25-4 3h-7l-4-3 1-11 7-47-9-3-17-8-21-12-25-16-11-8-5-3-3 9-7 17-6 2h-13l-3 17v5l9-3 5-5h2v7l-2 10-1 11-1 24-3 12-4 6-10 4-10 1-5 27-11 54-2 4-2 1h-8l-3-2v-8l12-79-11-3-22-9-33-6-1-3 2-5-15-3-13-5-15-8-12-9-4-4 4-18 8-29 14-51 11-40 11-39 9-29 8-24 9-17 8-10 8-6 8-4 8-2 14-1 18 2 27 6 1-8 5-13 7-12 9-10 11-7 8-3 5-1h37l26 3 20 3 1-34 1-27v-17l1-8v-17l-5 1-32 14-40 15-40 14-10 2h-18l-15-4-13-8-17-13-16-13-10-8-11-9-13-11-11-9-6-5v-16l4-11 6-11 9-9 10-5h8l27 15 23 13 24 14 9-3 33-16 28-13 47-23 25-13 20-8 18-4 5-1 16-1 30-7 15-3-1-12-2-16-18-5-17-8-7-5-5-12-2-12v-34l-5-2-9-6 5-9 10-13 10-12 4-18-8-5-3-3v-8l3-6-4-5-1-3v-7l4-6 6-3h7l-4-10-1-5v-10z" fill="#22448B"/>
<path transform="translate(1284,1447)" d="m0 0h10l-4 16-12 45-5 19 2 4 10 8 14 8 11 5 14 4 8 1-2 8 29 5 17 6 20 8-1 13-10 66v8l2 1h8l2-1 6-28 11-54 1-2 16-4 5-3 4-10 1-6 1-24 2-16 2-12-9 7-8 2 1-11 3-12 13-1 6-1 3-10 7-16 5 2 20 14 20 12 14 8 16 8 13 6-1 14-6 39v5l3 2h7l3-2 10-50 1-2 20 4 18 1 4 26 31 224 4 29 1 3 2 1h8l2-1v-9l-24-265v-11l5-3 15-4 20-6 28-11 9-4 19-9 22-12 13-8 11-6 17-10 3 1 30 179 6 35 6 37 2 7 2 1h8l2-1-1-15-1-11 1 2 5 2 16 9 14 8v2l-25 14-24 14-26 15-21 12-19 11-26 15-24 14-26 15-14 8-24 14-7 4-6-2-22-13-25-14-43-25-24-14-16-9-14-8-45-26-21-12-15-9-11 1-26 4-23 2h-49l-31-3-24-4-32-8-28-10-16-7-22-12-15-11-14-12-8-8-10-13-7-12-5-14-3-12-1-16 3-19 6-16 7-12 10-13 15-15 13-10 21-13 21-10 20-8 23-7 32-7z" fill="#E1E1E1"/>
<path transform="translate(1634,735)" d="m0 0 14 7 4 1h24l25-3h30l18 3 15 5 16 8 9 7 7 7 6 10 3 10 1 10 5 4 5 8 2 9v19l-4 18-7 16-9 15-12 16-9 10-7 8-12 13-6 7 1 13 2 15 17 1h12l-4 2 14 7 9 7 8 9 8 14 6 14 5 19 1 6v9l-25 13-23 14-16 12-15 13-12 13-12 16-11 18-11 21-10 24-10 28-10 36-13 56-8 36-13-2-23-6-25-10-18-10-11-8-4-3v-12l5-97 2-53v-17l1-8v-17l-5 1-32 14-40 15-40 14-10 2h-18l-15-4-13-8-17-13-16-13-10-8-11-9-13-11-11-9-6-5v-16l4-11 6-11 9-9 10-5h8l27 15 23 13 24 14 9-3 33-16 28-13 47-23 25-13 20-8 18-4 5-1 16-1 30-7 15-3-1-12-2-16-18-5-17-8-7-5-5-12-2-12v-34l-5-2-9-6 5-9 10-13 10-12 4-18-8-5-3-3v-8l3-6-4-5-1-3v-7l4-6 6-3h7l-4-10-1-5v-10z" fill="#407AFF"/>
<path transform="translate(482,987)" d="m0 0h1l4 31 4 49 3 53 2 52 1 39v76l-3 49-6 76-11 119-3 31-1 3-12 5-7 2-8 1h-9l-17-3-17-7-5-5-18-155-3-27-1-15v-35l2-22 1-9-10-48-4-20h-1l-14 77-11 54-29 125-22 95-7 30-1 3-4 2h-3v12l-1 16v26l2 25v21l-2 12-5 13-7 12-7 6-5 2h-10l-10-5-11-9-8-11-6-13-3-13-1-8v-11l3-20 7-27 5-17 1 4-9 37-3 13 14-3h25l15 4 9 6 3 4v-9l-1-11v-15l2-32 1-8-6 2-7 1h-16l-16-3-9-4-6-5-1-2-2-46-1-34v-110l2-31 5-39 5-29 1-3 16 4 25 5 25 3 25 1 4-112 6-188 2-1 12 1h36l21-2 28-5 19-5 16-6 13-7 10-8z" fill="#2A454E"/>
<path transform="translate(364,1224)" d="m0 0 2 3 9 44 5 26-2 15-1 14v35l3 34 16 137 3 26 4 4 17 7 17 3h9l12-2 13-5h2l1-14h1v6l4 1 25 9 29 14 16 10 16 13 10 9 9 11 9 14 5 11 4 13 2 13v13l-3 15-6 16-7 12-11 14-12 12-14 11-16 10-10 6-22 10-19 7-24 7-28 6-32 4-16 1h-40l-34-3-29-5-28-7-26-9-24-11-16-9-17-12-10-9-8-7-9-11-9-14-5-11-4-13-1-5v-25l4-16 6-13 6-10 11-14 12-12 14-11 12-8 11-6 9-4 2 29 5 5 5 3 9 3 12 2h16l13-2-1 19-1 21v15l1 11v11l-4-5-9-6-15-4h-25l-10 2h-4l3-18 8-32-9 31-4 20-1 9v11l3 17 4 11 5 9 8 10 11 8 7 3h10l8-4 7-9 6-13 3-10 1-8v-21l-2-25v-26l2-28 7-2 2-11 44-190 13-57 14-70 10-56z" fill="#E1E1E1"/>
<path transform="translate(1869,1059)" d="m0 0h8l10 2 9 7 7 9 4 10 3 18 1 76-2 8-5 60-6 50-6 38-8 36-7 20-6 10-10 9-18 13-17 11-6 4 31 259 1 15-3 2h-8l-3-2-2-7-6-37-11-65-25-149-6 2-10 6-11 7-11 6-23 13-16 8-11 5-22 9-17 6-14 4-17 5-2 1v11l24 265v9l-3 2h-8l-3-2-3-17-36-261v-4h-18l-6-1 18-9 13-12 10-14 9-16 11-26 12-36 10-38 12-51 10-44 12-48 12-36 7-16 12-22 10-15 10-13 14-15 11-10 13-10 21-14 16-9 19-10 14-5z" fill="#22448B"/>
<path transform="translate(1099,1148)" d="m0 0 7 1 15 8 11 8 6 6 1 15 11 10 22 18 12 11 8 11 5 11 1 5v12l11 3 23 10 14 8 3 4v21l-4 5-12 5-11 1-11-3-14-8-9-4-4 2-7 7-18 12-16 8-14 6-20 6-16 3-8 1-30 1-24-2-20-4-16-5-10 3-29 11v4l8 16 2 8v34l-4 11-6 9-13 13-18 12-17 9-18 7-19 5 13 8 7 6 1 4-1 16-5 5-8 5-5 1h-15l-9-3-14-9-9-7-9-9-6-10-2-8-10-1-21-6-29-11-27-11-14-4-6 1-21 8-16-8-3-2v-11l-5-2-7-5v-22l8-7 11-8 20-14 22-14 22-13 24-13 19-9 21-8 26-8 55-14 16-6 13-8 12-12 10-14 10-13 14-15 7-7 19-14 19-12 23-13 28-15 29-14z" fill="#365862"/>
<path transform="translate(350,486)" d="m0 0h23l16 3 13 4 16 8 12 9 7 6 7 8 7 11 4 10 1 6v19l-4 13-7 13-8 10-3 4-1 28-3 15-5 12-5 7h-2v2l-10 7-8 3-6 1h-13l1 19 8 2 16 10 16 12 13 12 9 9 9 11 10 13 12 19 6 11 8 17v14l-3 12-8 17-8 11v40l6 24 7 35 1 12-7 8-12 9-14 7-15 5-26 6-26 4-13 1h-36l-14-1v-16l1-40v-42l-21 11-4-1-5-16-1-16 2-11 4-10 5-5 15-4h3v-2l3-3v-14l-2-31-5-36-6-40-1-13v-16l1-15v-24l-11-18-8-15-6-4-8-9-5-11v-17l-6-21-2-15v-11l2-14 4-12 6-11 8-8 15-11 15-8 15-5z" fill="#407AFF"/>
<path transform="translate(969,133)" d="m0 0h2l1 12 10-6h2l1 801v127l-5 5-18 10-24 14-26 15-14 8-16 9-20 12-23 13-24 14-28 16-24 14-26 15-23 13-16 10-11 6-23 13-14 8-17 10-20 12h-3l-1-15-10 5-1-394-10 8-8 4-3 1h-19l-13-4-14-7-28-19-5-3 3 36 5 82 5 96 6 134 2 64-6-1-9-4-6-2v7h-1l-1-61-2-67-3-61-4-55-4-36v-12l-5-28-9-38v-40l9-13 7-15 3-12v-14l-9-20-15-24-12-16-13-15-12-12-14-11-10-7-15-9-6-2v-3h13l29 2 18 4 12 5 12 7 11 8 11 9 15 13 13 11 11 9 14 12 13 11 11 9v2l4 2 4-1 12-11 8-7 5-4 1-435 13-8 21-12 71-41 130-75 24-14 16-9 17-10 26-15 21-12 17-10zm12 11-18 10-17 10-24 14-49 28-24 14-23 13-22 13-23 13-15 9-28 16-78 45-24 14-23 13v411l4-2 7-8 6-12 10-29 14-25 4-7 5 2 2 9-3 12-2 5v6l1 1 8-1 11-6 10-8 14-14 7-8 5-1 2 7 6-3h3v7l-2 5 1 4 2 5-3 9-4 8 4-2h4l-1 6-7 12-8 10-8 7-12 10-14 8-14 7-8 7-10 16-6 11-2 8-11 19-15 20v416l6-2 15-9 25-14 15-9 14-8 24-14 28-16 52-30 24-14 28-16 43-25 21-12 24-14 49-28 1-2v-921z" fill="#E1E1E1"/>
<path transform="translate(943,1604)" d="m0 0h35l19 3 12 3 18 7 14 8 12 11 7 11 3 9v42l-7 14-10 11-14 9-10 5-18 6-20 4-9 1h-29l-21-3-15-4-8-3 3 8v42l-4 11-5 7h-2l-2 4-7 6-10 7-15 7-21 6-21 3h-31l-20-3-21-6-14-6-13-9-9-8-7-11-3-9v-42l7-14 9-10 11-8 16-8 7-3 21-5 15-2h34l17 2 15 4 8 3-3-10v-36l3-10 6-10 9-9 1-2 7-4 17-9 17-6 14-3z" fill="#22448B"/>
<path transform="translate(1540,205)" d="m0 0h2l6 11-9 6-23 13-24 14-52 30-7 4-3 12-6 11-8 8-1 105 7 1 6 4 2 4 1 7-3 12-5 9-5 6-2 1v79l5 3v2l10-5 3-2 5 1 6 4v18l-20 11-2 4 5 2 4-1 25-14 17-10 4-1 9 6 1 9 19-11 7-10 7-7 9-5 3-1h7l10 5 5 6 2 8-1 11-5 14-7 10-6 8-5 5-4 6v3l6 5 6 10 3 11 1 7v13l-3 18-7 21-11 21-5 7h-1v-19l-10 8-4 2-10 1-5-2-1-2-4-1-2-1v-2l-3-1-2-6v-13l4-12 2-3 6 1 5-8-5-2 1-2 7 1 2-2-3-3 1-3 4-4-3-3-1-9-6 9-7 7-7 4-7 1-7-3-6-4-1-2-2 3v-14l2-10 1-3 1-16-18 10h-3l-1 11-12 65-4 23 4 28 4 14 8 16 5 6v2l4 2-2 1-16-10-5-4-9-13-5-10-1-7h-2l-1 13-2-2-5 9h-4v5l-8 7-1-4-4 1v6l-9 1 1-4h-2l-2 4-9-4-6-5-2-7 1-13 4-11 1-2 5 1 2 1 2-5 1-4-3-2 1-3 8 1-2-5 1-2h-2l-1-11-6 11-6 7-7 5-8 2-9-3-3-2v11l-3 8-8 9-8 6-3 2v-21l-5-1-15-6v16l-6 10-7 15-5 16-2 12v17l3 12 5 8 3 2 9 1v13l-9-1-19-11-9-8-6-12-2-9v-23l3-16 5-15 8-16 7-12 6-8-2-9v-12l3-10 7-13 8-9 9-6 7-2 11 1 9-5-3-3v-18l18-10 48-28 1-1 1-8-10 5-6-1-6-4v-17l24-14 3-2 1-10 5-3h2v-83l-5-2-5-4-2-5 1-12 7-14 3-3 1-111-5-2-4-4-2-9 3-12 6-10 8-8 8-3 12 2 20-12 23-13 21-12h2v-2l12-6 24-14z" fill="#EEE2EC"/>
<path transform="translate(318,927)" d="m0 0h2v22l-4 148-7 211-1 13-25-1-35-5-24-6-20-8-15-8-2-2 1-16 22-182 5-38 6-37 9-45 22-9 20-10 15-9 19-12z" fill="#FAFAFA"/>
<path transform="translate(1718,433)" d="m0 0h22l17 3 17 6 15 8 13 10 10 10 9 12 9 16 6 18 3 20v13l-2 16-6 20-9 17-10 13-13 13-10 7-14 8-17 6-11 2-3 10-9 23-4 3-6-1-4-8-10-26-21-6-16-8-11-7-11-9v-2h-2l-9-11-9-14-6-13-5-17-2-16v-13l2-16 5-17 8-16 7-11 11-12 10-9 14-9 15-7 19-5z" fill="#F9F9F9"/>
<path transform="translate(342,190)" d="m0 0h10l17 2 15 4 19 9 14 10 5 4v2l4 2 9 11 7 10 9 19 4 15 2 16v12l-2 16-4 15-10 21-9 12-2 3h-2l-2 4-10 9-10 7-10 6-15 6-12 3h-4l-1 5-10 26-2 4-2 1h-6l-4-6-11-28v-2l-9-1-15-5-16-8-12-9-10-9-10-12-10-17-6-16-3-14-1-10v-14l2-15 4-15 6-13 8-14 11-13 10-9 10-7 17-9 15-5 11-2z" fill="#F9F9FA"/>
<path transform="translate(310,702)" d="m0 0 1 2-1 15v16l2 21 8 52 3 29 1 18v14l-2 3h-2v2l-18 5-5 6-4 11-1 16 3 16 3 8 2 2-13 8-21 12-23 11-11 4h-2l-1 9-10 53-6 42-16 131-9 76v7l14 8 14 6 16 5 22 5 29 4 25 2v-13l5-151 4-130 2-78 1-23 3-1v43l-3 119-7 213-1 24-1 1-25-1-31-4-23-5-12-4-1 3-4-4-20-9-11-7-1-1v-9l4-35 4-30 18-149 7-45 8-42 2-9-7 2-7 1h-33l-11-3-8-6-4-6-2-10v-12l4-33 8-48 8-39 8-34 8-24 6-12 7-9 9-8 13-6 23-7 47-13 14-4z" fill="#E1E1E1"/>
<path transform="translate(350,486)" d="m0 0h23l16 3 13 4 16 8 12 9 7 6 7 8 7 11 4 10 1 6v19l-4 13-7 13-8 10-3 4-1 28-3 15-5 12-5 7h-2v2l-10 7-8 3-6 1h-13l1 19 5 1 6 14 5 15 3 18v19l-2 1-17-8-22-12-16-9-24-16-10-8v-39l-11-18-8-15-6-4-8-9-5-11v-17l-6-21-2-15v-11l2-14 4-12 6-11 8-8 15-11 15-8 15-5z" fill="#FDBDA7"/>
<path transform="translate(1272,372)" d="m0 0h2v161l-22 12-10 6-26 15-24 14-28 16-17 10-28 16-22 13-6-1-3-2v-161l8 2 14-8 11-6 21-12 24-14 26-15 27-16 20-11 17-10z" fill="#FBFBFB"/>
<path transform="translate(1272,167)" d="m0 0h2v161l-22 12-10 6-104 60-17 10-24 14-6-1-3-2v-161l5 1 3 1 46-26 15-9 23-13 19-11 14-8 41-24 11-6z" fill="#FBFBFB"/>
<path transform="translate(1603,992)" d="m0 0h19l2 5 2 13v18l-3 19-5 16-5 12-6 12-10 14-5 4-37 16-28 12-49 18-30 10-6 1h-18l-15-4-13-8-17-13-16-13-10-8-11-9-13-11-11-9-6-5v-16l4-11 6-11 9-9 10-5h8l27 15 23 13 24 14 9-3 33-16 28-13 47-23 25-13 20-8z" fill="#375863"/>
<path transform="translate(1777,973)" d="m0 0h13l15 3 17 8 14 12 10 14 8 15 10 23v2h6l8 4 7 6-3 1-5-1h-8l-15 3-15 6-19 10-17 10-17 12-9 7-13 11-9 9-9 11-11 15-10 17-8 16-7 16-11 33-15 60-13 58-9 37-9 32-11 33-13 29-12 19-12 13-11 8-9 4h-10l-8-3-5 27-5 25-4 3h-7l-4-3 1-11 7-47-9-3-17-8-21-12-25-16-11-8-5-3-3 9-7 17-6 2h-13l-3 17v5l9-3 5-5h2v7l-2 10-1 11-1 24-3 12-4 6-10 4-10 1-5 27-11 54-2 4-2 1h-8l-3-2v-8l12-79-11-3-22-9-33-6-1-3 3-6h6l8-16 17-32 2-1-2 12v9l6 1 2-17 3-9 9-7 2 4 6 9 10 6 5 1 7-45 6-40-4-5-4-11-3-16v-15l4 5 8 12 11 13 12 12 11 9 17 13 15 10 23 15 13 8 14 8 17 8 14 4h17l10-3 11-7 7-7 8-14 6-13 5-14 9-29 11-44 10-43 12-53 10-37 10-30 10-24 10-21 10-17 10-14 9-11 12-13 15-13 19-13 15-9 22-12 6-2-3-20-5-17-9-19-9-12-8-7-12-7-8-3z" fill="#A3C2F2"/>
<path transform="translate(1634,735)" d="m0 0 14 7 4 1h24l25-3h30l18 3 15 5 16 8 9 7 7 7 6 10 3 10 1 10 5 4 5 8 2 9v19l-4 18-7 16-9 15-12 16-9 10-7 8-12 13-7 8-7 2h-23l-21-5-9-4-6-10-2-8v-12l3-12h3l6 3h7l10-5 6-7 4-9 1-5v-9l-4-8-5-3-4-1h-7l-9 4-3 3h-2l-2 4-6 7h-5l-2-2-1-11 3-12 4-7-14-3-10-5-7-7-3-5v-3l-7 1h-9l-6-4-3-3v-8l3-6-4-5-1-3v-7l4-6 6-3h7l-4-10-1-5v-10z" fill="#1A2E35"/>
<path transform="translate(1792,1455)" d="m0 0 3 1 30 179 6 35v8l-5-2-23-13-11-7-21-12-24-14-23-13-17-10-14-8-10-6-11-6-14-8-17-10-5-2-3-28v-11l5-3 15-4 20-6 28-11 9-4 19-9 22-12 13-8 11-6z" fill="#FAFAFA"/>
<path transform="translate(1081,1180)" d="m0 0h16l13 5 14 8 19 14 11 10 8 7v2h2l8 11 4 8 2 8v7l-3 10-7 10-7 7-15 10-15 8-19 7-17 4-18 2h-16l-24-3-19-5-26-10-16-8-11-7-7-6-3-9 3-10 7-11 9-10 6-7 11-9 13-10 18-11 15-8 21-8 13-4z" fill="#A59FAD"/>
<path transform="translate(852,1324)" d="m0 0h21l15 5 15 8 16 12 13 12 7 9 4 8 2 8v7l-3 10-7 11-7 7-14 10-21 11-18 6-14 3-8 1h-29l-24-4-24-7-28-11-23-11-15-10-4-5 1-8 7-10 9-9 17-12 21-12 20-9 18-7 31-9z" fill="#ABA9B5"/>
<path transform="translate(790,1697)" d="m0 0h24l17 2 17 4 16 6 16 9 11 10 7 11 3 10v10l-3 10-6 9-6 7-14 10-18 8-19 5-11 2-12 1h-19l-18-2-20-5-13-5-15-8-12-11-6-8-4-9-1-13 3-10 6-10 11-11 11-7 16-7 18-5z" fill="#22448B"/>
<path transform="translate(364,1224)" d="m0 0 2 3 9 44 5 26-2 15-1 14v35l3 34 16 137v11l-4-1h-40l-30 2-26 3v-8l24-103 19-83 14-70 10-56z" fill="#F9F9F9"/>
<path transform="translate(350,486)" d="m0 0h23l16 3 13 4 16 8 12 9 7 6 7 8 7 11 4 10 1 6v19l-4 13-7 13-8 10-4 3-2-10v-23l-2-9-1-4-10-1-20-5-12-6-9-8 1 8 5 10h-9l-14-3-12-5-10-8-4-4v16l-4 13-6 8-3 2 1 7 1 4v13l-4 5-5 1-5-5-5-8-3-3-5-2h-9l-8 4-6 9-2-3-5-17-2-15v-11l2-14 4-12 6-11 8-8 15-11 15-8 15-5z" fill="#1A2E35"/>
<path transform="translate(943,1604)" d="m0 0h35l19 3 12 3 18 7 14 8 12 11 7 11 3 9v42l-7 14-10 11-14 9-10 5-18 6-20 4-9 1h-29l-21-3-15-4-8-3 3 8v42l-4 11-5 7h-2l-2 4-7 6-10 7-15 7-21 6-21 3h-31l-20-3-21-6-14-6-13-9-9-8-7-11-3-9v-42l7-14 9-10 11-8 16-8 7-3 21-5 15-2h34l17 2 15 4 8 3-3-10v-36l3-10 6-10 9-9 1-2 7-4 17-9 17-6 14-3zm4 2-25 4-21 7-15 8-10 8-7 8-6 12-1 5v10l4 12 6 8 10 10 11 7 19 8 16 4 12 2 12 1h17l24-3 15-4 13-5 15-8 10-9 6-7 4-7 2-5 1-13-4-13-8-11-8-7-13-8-14-6-18-5-20-3zm-157 91-21 3-21 6-17 8-10 8-9 9-6 11-2 8 1 13 7 14 11 11 11 7 15 7 21 6 12 2 11 1h19l18-2 21-5 19-8 12-8 8-7 7-10 3-7 1-5v-10l-3-10-7-11-11-10-16-9-16-6-17-4-17-2z" fill="#22448B"/>
<path transform="translate(1369,709)" d="m0 0h1v12h2l1 4v4h-5l-3-1v2l3 2-1 4-3 5-7-2-3 9-2 10v7l3 8 5 4 8 3 2-3h2l-1 4 9-1v-6l4-1 1 3 7-6v-5l2-1 3 1 2-5 3-5h1l-1 11-6 23-9 25-9 19-4 10-8 16-7 8-8 7-6 4-10 9-10 5h-7l-22-12-5-6-2-4v-9l-4-1h3v-13h-9l-6-5-5-12-1-6v-17l3-16 7-19 9-17 1-1 1-16 9 3 11 4 1 20 8-7 7-6 4-7 2-15 5 2 8 2 8-3 6-4 8-11z" fill="#DDDDDE"/>
<path transform="translate(1533,535)" d="m0 0h7l10 5 5 6 2 8-1 11-5 14-7 10-6 8-5 5-4 6v3l6 5 6 10 3 11 1 7v13l-3 18-7 21-11 21-5 7h-1v-19l-10 8-4 2-10 1-5-2-1-2-4-1-2-1v-2l-3-1-2-6v-13l4-12 2-3 6 1 5-8-5-2 1-2 7 1 2-2-3-3 1-3 4-4-3-3-1-9-6 9-7 7-7 4-7 1-7-3-6-4-1-2-2 3v-14l2-10 1-3 1-16-18 10-7-1-8-6 3-32 13-8 26-15 9-5 6 2 5 4 1 9 19-11 7-10 7-7 9-5z" fill="#EEE2EC"/>
<path transform="translate(1159,1546)" d="m0 0h16l38 5-1 3-6 5-5 10-2 7v5h6l5-15 6-8 5-4 2-1h6l-6 7-4 9-2 13v2h7l3-14 4-9 6-7h5l-2 6-3 8-1 6v10l1 1h5l1-1 2-17 4-11 2-2 8-2 6-4 4 1 3 9 6 5 5 3 4 13v2l4 1 13-1 14-4 7-6 1-2 4 1 1 3v9l-2 12-1 27-2 12-4 9-12 6-4 1h-21l-17-4-30-11-24-4-19-3-15-4-12-5-11-7-7-5v-2l-4-2-7-8-3-6v-24l5-8 7-6 6-3z" fill="#2A454E"/>
<path transform="translate(1249,1291)" d="m0 0 6 4 4 5 3 9-1 11-5 8-9 6-16 8-13 3-13-1-11-4-10-6-10-4-14 8-21 10-21 7-12 3-22 3h-32l-24-3-10-2-7 1-37 14-5 2 2 6 4 8 3 11 1 6v8l-3 12-4 10-7 9-9 10-16 12-17 10-20 9-11 4 2 1v2l6 2 10 9 3 7v9l-4 8-8 7-16 10-11 3h-15l-13-3-15-9-11-8-12-11-8-11-4-9-1-4-33-11-30-12-7 1-21 8-11 5h-6l-46-24-7-4-1-3-1-14v-12l9-8 9-6v19l4 2 8 5 1 11 17 9 20-7 5-2 11 2 26 10 33 13 20 6 14 3 5 12 7 9 8 8 15 10 10 5 4 1h15l9-3 7-5 1-2 1-17-3-5-18-12v-1l23-6 21-9 16-9 14-10 12-12 6-10 3-9v-34l-4-13-6-11v-4l8-4 30-11 11 3 21 5 14 2 23 1 23-1 20-3 21-6 15-6 16-8 16-10 12-11 3-1 17 8 9 5 8 2 11-1 12-5 3-4z" fill="#DFDFE0"/>
<path transform="translate(1639,814)" d="m0 0h7l4 8 8 7 8 4 15 3-5 10-2 10 1 11 1 1h5l7-8 5-5 4-3 6-2h7l8 3 4 5 2 5v9l-3 10-6 9-8 6-5 2h-7l-8-4-3 12v12l2 8 6 10 15 5 14 3h23l7-1 3 19 1 13-9 4-16 3-10 1h-24l-20-2-6-2-4-28-18-5-17-8-7-5-5-12-2-12v-34l-5-2-9-6 5-9 10-13 10-12 4-18z" fill="#FDBDA7"/>
<path transform="translate(1456,611)" d="m0 0h2v16l-2 6-1 7v9l4 5 7 4 6 1 9-3 10-9 6-9 1 2v8l3 1v2l2 1h-3l-1 3-2 1 1 3 2 2-3 3-7-1 4 3-2 5-3 4-6-1-4 10-1 8v9l2 6 2 1v2l6 2 6 3 10-1 11-7 4-4v22l-1 34-4 13-4 8-9 10-3 3-9 4-15 5h-8l-10-6-11-6-7-8-6-9-7-17-3-13-3-23 4-23 14-76 14-7z" fill="#DEDDDE"/>
<path transform="translate(700,1787)" d="m0 0 2 3 4 10 8 10 13 10 14 7 21 7 16 3 9 1h31l21-3 21-6 16-8 6-4 9-7 3-4h2l2-5 4-6 2-7 2 1 2 5 4 6 4 13v12l-4 13-7 10-5 6-13 10-16 8-16 6-17 4-24 3h-22l-19-2-19-4-18-6-16-8-12-9-9-9-6-10-4-13v-9l3-12 7-12z" fill="#E2E1E2"/>
<path transform="translate(965,1396)" d="m0 0h1v21l-4 11-6 9-13 13-18 12-17 9-18 7-19 5 13 8 7 6 1 4-1 16-5 5-8 5-5 1h-15l-9-3-14-9-9-7-9-9-6-10-2-8-10-1-21-6-29-11-27-11-14-4-6 1-21 8-16-8-3-2v-11l-5-2-7-5v-22l9 6 14 8 16 6 5-1h15l13 4 28 11 20 8 25 8 22 4 11 1h25l21-3 22-6 22-10 18-11 11-9 9-9 7-12z" fill="#2A454E"/>
<path transform="translate(1419,1433)" d="m0 0 5 4 5 6 11 9 2 4-12 59v5l9-3 5-5h2v7l-2 10-1 11-1 24-3 12-4 6-10 4-10 1-5 27-11 54-2 4-2 1h-8l-3-2v-8l12-79-11-3-22-9-33-6-1-3 3-6h6l8-16 17-32 2-1-2 12v9l6 1 2-17 3-9 9-7 2 4 6 9 10 6 5 1 7-45z" fill="#2A454E"/>
<path transform="translate(1540,205)" d="m0 0h2l6 11-9 6-23 13-24 14-52 30-7 4-3 12-6 11-8 8-1 105 7 1 6 4 2 4 1 7-3 12-5 9-5 6-2 1v79l5 3v2l10-5 3-2 5 1 6 4v18l-23 13-1 7-19 11-4-2-5 1-14 8-6-1-6-4v-17l24-14 3-2 1-10 5-3h2v-83l-5-2-5-4-2-5 1-12 7-14 3-3 1-111-5-2-4-4-2-9 3-12 6-10 8-8 8-3 12 2 20-12 23-13 21-12h2v-2l12-6 24-14z" fill="#33535D"/>
<path transform="translate(1120,1213)" d="m0 0 8 4 16 12 11 9 13 12 9 11-1 7-7 11-8 8-15 10-15 8-19 7-17 4-18 2h-16l-24-3-19-5-8-3 5-4 11-10h2v-2l8-6 5-5 11-9 9-8 8-7 42-36z" fill="#AAA8B5"/>
<path transform="translate(1197,1264)" d="m0 0 9 2 24 10 16 9 3 4v21l-4 5-12 5-11 1-11-3-14-8-9-4-4 2-7 7-18 12-16 8-14 6-20 6-16 3-8 1-30 1-24-2-20-4-16-5-10 3-29 11h-4l-1-3h-2v-2l-4-2-17-17-5-8v-7l5-6 8-4 4-1h15l16 4 37 12 22 5 24 3h28l22-3 22-6 19-8 17-9 13-9 7-6h2l2-4 6-8 4-8z" fill="#2A454E"/>
<path transform="translate(302,709)" d="m0 0h4l1 32 3 26 7 45 2 18 1 15v29l-14 4-22 3-40 6v-6l3-8 7-27 9-34 3-19 1-12v-13l-2-17-4-13-5-8-1-3h-2v-2h-2v-2l40-11z" fill="#FAFAFA"/>
<path transform="translate(1483,1213)" d="m0 0h37l26 3 20 3-1 32-3 57-2 2-40-15-30-11-32-10-20-6h-1l1-9 5-13 7-12 9-10 11-7 8-3z" fill="#22448B"/>
<path transform="translate(852,1324)" d="m0 0h21l15 5 15 8 16 12 13 12 7 9 4 8 2 8v7l-3 10-7 11-7 7-14 10-21 11-18 6-14 3-11 1-2-1 1-7 6-9 25-25h2l2-4 4-2v-2h2v-2l8-7 10-9h2v-2l8-7 2-4-10-7-13-8-14-6-11-3h-15l-26 5-25 7-28 10-29 14-18 11-13 10-7 6-5-6 1-8 7-10 9-9 17-12 21-12 20-9 18-7 31-9z" fill="#A59FAD"/>
<path transform="translate(713,680)" d="m0 0 4 1 2 6 5-3 4 1v7l-2 5 1 4 2 5-3 9-4 7 3-2 5 1-1 6-7 12-8 10-10 9-14 11-15 8-10 5-7 6-10 16-7 12-1 3h-9l-9-3-9-7-6-9-3-6-1-5v-11l17-17 7-11 12-34 14-25 5-8 5 2 3 7-2 12-3 8v6l8-1 11-6 10-8 13-13 7-8z" fill="#FEBEA7"/>
<path transform="translate(1272,167)" d="m0 0h2v161l-22 12-10 6-104 60-17 10-24 14-6-1-3-2v-161l5 1 3 1 46-26 15-9 23-13 19-11 14-8 41-24 11-6zm-14 16-52 30-16 9-22 13-26 15-24 14-16 9v138l5-2 13-8 10-5 17-10 24-14 21-12 26-15 17-10 14-8 11-6v-138z" fill="#22448B"/>
<path transform="translate(1272,372)" d="m0 0h2v161l-22 12-10 6-26 15-24 14-28 16-17 10-28 16-22 13-6-1-3-2v-161l8 2 14-8 11-6 21-12 24-14 26-15 27-16 20-11 17-10zm-14 16-71 41-24 14-25 14-8 5-23 13-5 3v138l5-2 21-12 17-10 28-16 26-15 24-14 26-15 11-6v-138z" fill="#22448B"/>
<path transform="translate(1210,938)" d="m0 0 9 1 14 9 21 16 10 7 7 3 23 3 10 5v2l3 1 8 10 8 13 6 11 14 9 9 2 1 2-4-1h-8l-10 5-8 8-8 15-2 7-1 15-5-5-14-8-31-12-16-9-7-8v-6l1-6-4-6 1-8 3-5-2-5-2-3v-8l3-4-1-4-8-10-15-16-7-9-1-7z" fill="#FDBDA7"/>
<path transform="translate(1061,1699)" d="m0 0 5 5 5 9 3 10v10l-3 12-6 10-9 10-9 7-16 9-16 6-21 5-13 2-15 1h-11l-22-2-20-4-6-1-2-1-1-41-2-8 11 3 17 4 16 2h29l21-3 21-6 12-5 14-9 8-7 7-10z" fill="#E2E1E2"/>
<path transform="translate(394,821)" d="m0 0h6l2 2v9l-1 2 9 1 15 5 2 2-1 5-4 3-4 1h-10l-8-1h-11v3l8 4 3 4v6l-2 4-2 9-4 2v6l-4 4-15 4-7 4-7 8-4 5-9 5-18 5-24 12-3 2-4-1-5-16-1-16 2-11 4-10 5-5 15-4h3v-2l4-4 21-36 4-3 3-1 32 1z" fill="#FEBEA7"/>
<path transform="translate(398,1578)" d="m0 0 4 1 5 4 6 8 6 12 2 8v15l-1 4 10 3 10 5 10 8 7 8 5 6v2h2l1-5 7-11 7-7 14-9 11-3h7l6 2 14 10 18 14 8 7 4 5 2 5-2 10-4 4-9 4-9 2-10 1h-13l-17-2-17-4-11-6-4-3v-2h-2l-8-10-11-13-8-7-4-2-6 1-5 3h-7l-12-4-8-5-4-18-2-14v-7l4-11z" fill="#2A454E"/>
<path transform="translate(1718,433)" d="m0 0h22l17 3 17 6 15 8 13 10 10 10 9 12 9 16 6 18 3 20v13l-2 16-6 20-9 17-10 13-13 13-10 7-14 8-17 6-11 2-3 10-9 23-4 3-6-1-4-8-10-26-21-6-16-8-11-7-11-9v-2h-2l-9-11-9-14-6-13-5-17-2-16v-13l2-16 5-17 8-16 7-11 11-12 10-9 14-9 15-7 19-5zm2 8-20 4-13 5-15 8-13 11-8 8-10 14-7 15-5 17-2 16 1 18 4 17 5 12 7 13 8 10 10 10 8 7 16 9 16 6 15 3h24l18-4 13-5 11-6 12-9 13-13 7-10 9-17 5-17 2-17-1-18-4-17-7-16-9-14-11-12-9-8-13-8-13-6-14-4-13-2z" fill="#375963"/>
<path transform="translate(342,190)" d="m0 0h10l17 2 15 4 19 9 14 10 5 4v2l4 2 9 11 7 10 9 19 4 15 2 16v12l-2 16-4 15-10 21-9 12-2 3h-2l-2 4-10 9-10 7-10 6-15 6-12 3h-4l-1 5-10 26-2 4-2 1h-6l-4-6-11-28v-2l-9-1-15-5-16-8-12-9-10-9-10-12-10-17-6-16-3-14-1-10v-14l2-15 4-15 6-13 8-14 11-13 10-9 10-7 17-9 15-5 11-2zm3 8-18 2-17 5-16 8-12 9-6 5-7 8-8 10-8 16-5 15-2 10-1 18 2 16 4 14 7 16 9 13 9 10 9 8 14 9 16 7 17 4 10 1h10l15-2 17-5 16-8 11-8 10-9 10-12 9-16 6-18 2-10 1-17-2-17-5-17-8-16-8-11-12-13-16-11-14-7-17-5-19-2z" fill="#22448B"/>
<path transform="translate(1407,1376)" d="m0 0 5 2 39 26 20 13 23 14 26 15 26 13 18 7 20 4h26l11-1-2 6-7 11-8 8-12 7-8 2h-17l-17-5-22-11-19-12-23-15-12-8-19-14-10-9-8-7-11-11-10-13-8-13z" fill="#22448B"/>
<path transform="translate(1081,1202)" d="m0 0h16l11 4 2 3h-2v2l-11 9-7 6h-2v2l-11 9-3 1v2l-11 9-4 2v2l-11 9-10 9-11 9-11 10h-2v2l-11 9-4 2-16-7-14-8-10-8 1-5 9-10 7-8 8-7 13-10 20-13 19-10 23-9z" fill="#AAA8B5"/>
<path transform="translate(1627,1528)" d="m0 0h6l25 276v9l-3 2h-8l-3-2-3-17-36-261v-4l17-2z" fill="#2A454E"/>
<path transform="translate(1304,668)" d="m0 0 8 1 9 6 3 3 2 7v10l-4 13-4 8-7 9-8 7-8 4h-8l1 2v16l-6 10-7 15-5 16-2 12v17l3 12 5 8 3 2 9 1v13l-9-1-19-11-9-8-6-12-2-9v-23l3-16 5-15 8-16 7-12 6-8-2-9v-12l3-10 7-13 8-9 9-6z" fill="#375863"/>
<path transform="translate(1817,1440)" d="m0 0h3l31 259 1 15-3 2h-8l-3-2-2-7-6-37-11-65-25-149v-2l9-5z" fill="#1B2F36"/>
<path transform="translate(402,1563)" d="m0 0 5 1 13 5 17 3h9l12-2 12-4 2 5 3 9 8 14 10 14 12 13 9 6-3 1h-7l-13 4-13 9-8 9-6 12h-2l-8-10-5-6-12-9-17-7v-19l-4-13-6-10-5-6-7-4z" fill="#FCBDA7"/>
<path transform="translate(1500,576)" d="m0 0h1l1 13 3 6 9 6 2 1h9l10-5 3-3 2 1-6 5-5 8v3l6 5 6 10 3 11 1 7v13l-3 18-7 21-11 21-5 7h-1v-19l-10 8-4 2-10 1-5-2-1-2-4-1-2-1v-2l-3-1-2-6v-13l4-12 2-3 6 1 5-8-5-2 1-2 7 1 2-2-3-3 1-3 4-4-2-3v-16l2-8v-8l-2-6-1-20z" fill="#DBDBDD"/>
<path transform="translate(1678,492)" d="m0 0h102v30h-18v-13h-22v82h8l5 1v15h-48v-15l5-1h7v-82h-21v13h-18z" fill="#22448B"/>
<path transform="translate(1369,709)" d="m0 0h1v12h2l1 4v4h-5l-3-1v2l3 2-1 4-3 5-7-2-3 9-2 10v7l3 8 5 4 7 3 1 1v32l-5-1-3-2h-8l-9 4-3 2-1 3 3 1-2 4-7-1-1 2 5 2-5 8-5-1-1-4 1-2 1-11-8 4h-11l-9-5-4-5-2-5v-12l3-10 7-13 9-10 9-7 6-9 2-15 5 2 8 2 8-3 6-4 8-11z" fill="#DEDBDE"/>
<path transform="translate(944,1625)" d="m0 0h18l10 3 8 5 5 6v9l36 6v4l-21 12h-10l-25-5-2 1 13 8 6 4-1 3-21 12-6-1-45-26-17-10-2-1v-4l27-15 15-8z" fill="#FAFAFA"/>
<path transform="translate(217,1675)" d="m0 0h25l15 4 9 6 4 6v21l-4 17-8 13-2 3h-2v2l-7 4h-11l-10-5-10-10-8-13-4-11-2-13v-14l1-7z" fill="#2A454E"/>
<path transform="translate(386,253)" d="m0 0h8l6 3 3 6v7l-4 7-13 16-10 13-11 14-12 15-11 14-6 4h-8l-7-5-7-8-7-7-7-8-7-7-2-5v-8l3-5 5-3h8l6 3 11 12 6 6v2l5-5 10-12 33-42 4-5z" fill="#22448B"/>
<path transform="translate(1456,611)" d="m0 0h2v16l-2 6-1 7v9l4 5 7 4 6 1 9-3 10-9 6-9 1 2v8l3 1v2l2 1h-3l-1 3-2 1 1 3 2 2-3 3-7-1 4 3-2 5-3 4-6-1-4 10-1 8v9l2 6 2 1v2l6 2 6 3h6l-1 23-11-4-12 3-5 4v2l3 3-2 2-7-1-1 3 4 2-5 8-6-2 1-6-1-17-2-1 6-5h2l2-6 6-9 3-12v-12l-2-8-5-2-7-4-4-1-10 3-8 5 5 3v2h-2l-2 4-7 9-4-1-2-1-3 4 1-12 13-70 14-7z" fill="#EFE3ED"/>
<path transform="translate(217,1611)" d="m0 0 7 1 11 3 7 1h16l13-2-1 19-1 21v15l1 11v11l-4-5-9-6-15-4h-25l-10 2h-4l3-18 8-32 2-13z" fill="#FBBCA6"/>
<path transform="translate(1288,738)" d="m0 0 9 3 11 4v22l-6 9-5 10-2 8v12l4 8 9 6 1 60 3 8-5-2-12-7-4-5-2-4v-9l-4-1h3v-13h-9l-6-5-5-12-1-6v-17l3-16 7-19 9-17 1-1z" fill="#22448B"/>
<path transform="translate(457,1035)" d="m0 0 1 2-5 9-8 10-13 11-18 11-15 6-4 1-3 20-13 109v33l1 47-2-3-9-44-5-27 22-153 1-4 23-4 19-6 14-7 11-8z" fill="#1A2E35"/>
<path transform="translate(1120,1213)" d="m0 0 8 4 16 12 11 9 13 12 5 6v2h-38l-21 3-27 7-41 13-6 1 5-5 11-10 10-8 11-10 11-9 10-9 11-9z" fill="#EFE3ED"/>
<path transform="translate(817,273)" d="m0 0h2v27l-9 6h-1l-1-10-6 2-13 8h-2l1 25 20-11h1v16l-18 10-3 2-1 29 21-12 1-13 10-5v28l-26 15-24 14h-2v-12l5-5h2v-74l-7 1v-12l24-14z" fill="#375963"/>
<path transform="translate(1425,615)" d="m0 0 5 2 7 4-1 11-12 65-4 23 4 28 4 14 8 16 5 6v2l4 2-2 1-16-10-5-4-9-13-5-10-2-7 1-8-4 1 2-4h2l-2-9h-3v2h-2l1-4h3l-2-16v-10l3-20 3-15-13 7h-2l-4-20 7-4 4 1 3 6 4 2 7-1 8-7 3-6v-13l-1-1z" fill="#22448B"/>
<path transform="translate(759,1727)" d="m0 0h6l11 7 11 6 23 13 5-1 21-12 3-2h6l15 9v4l-28 16-22 13h-7l-21-12-24-14-16-9-4-3v-3z" fill="#FAFAFA"/>
<path transform="translate(1078,1203)" d="m0 0h5l-5 5-16 13-13 10-16 13-9 7-14 11-11 9-16 13-8 6-4-1-11-8-1-4 7-9 10-11 8-7 13-10 20-13 19-10 23-9z" fill="#EFE3ED"/>
<path transform="translate(899,805)" d="m0 0h2v12l-10 6h-2v2l-12 6-19 11-26 15-24 14-52 30-28 16-24 14-19 11h-1v-12l3-3 11-6 25-14 48-28 28-16 24-14 28-16 43-25z" fill="#22448B"/>
<path transform="translate(1456,672)" d="m0 0 2 3 5 2 9 5 3 8v12l-3 12-7 10-2 5-7 5-2 3h-2v-3l-2 1-2 6-4 1h-9l-10-6-3-3-2-5-1-8 3-17h2l2-6 3 3 4-1 6-8 2-3h2v-2l-6-2 5-5 9-4h5z" fill="#D2D3D6"/>
<path transform="translate(1385,714)" d="m0 0 8 1 9 6-2 6h2v-2h3l2 9-4 4 4-1-1 8-2 13-2-2-5 9h-4v5l-8 7-1-4-4 1v6l-9 1 1-4h-2l-2 4-9-4-6-5-2-7 1-13 4-11 1-2 5 1 2 1 2-5 1-4-3-2 1-3 8 1-2-5 2-4 8-4z" fill="#D6D6D9"/>
<path transform="translate(398,1578)" d="m0 0 4 1 5 4 6 8 6 12 2 8v15l-1 4 10 3 10 5 10 8 7 8 8 11 7 8 12 6 16 4 7 1h29l14-3 9-4h2l-1 4-3 3-9 4-9 2-10 1h-13l-17-2-17-4-11-6-4-3v-2h-2l-8-10-11-13-8-7-4-2-6 1-5 3h-7l-12-4-8-5-4-18-2-14v-7l4-11z" fill="#1C3037"/>
<path transform="translate(928,1379)" d="m0 0 5 2 9 10 2 3-1 7-6 10-9 10-14 10-21 11-18 6-14 3h-7l3-5 25-25 8-7 7-7 8-7 13-12z" fill="#EDE2EC"/>
<path transform="translate(846,394)" d="m0 0h9l5 6 1 3v17l-3 10-6 10-5 5-10 7-4 2v17h5v10l-19 11h-2v-10l4-3v-59h-4v-10l18-10z" fill="#375963"/>
<path transform="translate(877,949)" d="m0 0h1v13l-49 28-26 15-17 10-15 9-11 6-48 28-4 1v-12l9-6 25-14 17-10 52-30 24-14 28-16z" fill="#22448B"/>
<path transform="translate(1777,973)" d="m0 0h13l15 3 17 8 14 12 10 14 8 15 10 24-17 3-14 5h-2l-4-22-6-18-9-17-8-10-7-6-12-7-8-3z" fill="#375963"/>
<path transform="translate(1387,605)" d="m0 0 7 1 5 3 2 17-16 9-17 10-26 15-10 6-4-1-7-4v-18l18-10 24-14z" fill="#2A454E"/>
<path transform="translate(801,537)" d="m0 0 7 1 5 5 3 10v18l-3 14-7 14-7 7-6 3h-6l-6-5-3-9v-23l3-12 6-12 6-7z" fill="#375963"/>
<path transform="translate(1128,1283)" d="m0 0h29l5 1-1 3-15 10-15 8-19 7-17 4-18 2h-16l-24-3v-3l40-14 34-11z" fill="#A59FAD"/>
<path transform="translate(853,1392)" d="m0 0 3 1-26 26-9 11-8 11-4 7h-9l-24-7-23-9v-2l34-13z" fill="#EEE2EC"/>
<path transform="translate(1434,540)" d="m0 0 5 1 6 4v18l-23 13-1 7-19 11-4-2-5 1-14 8-6-1-6-4v-17l24-14 4-2 3 3 4 2 18-11 1-10 10-5z" fill="#2A454E"/>
<path transform="translate(1388,650)" d="m0 0 2 1 3 13v5l13-7h2l-1 10-3 16-1 9v10l1 5v11h-2l-4-4-5-3-8-1-9 3-4 3h-2l1-31-3-6v-22l15-9z" fill="#22448B"/>
<path transform="translate(1136,1578)" d="m0 0h2l4 8 7 8 11 9 11 7 15 5 18 3 28 3 18 5 18 7 14 3h22l12-3 6-3h2v-2h2l-1 8-3 6-12 6-4 1h-21l-17-4-30-11-24-4-19-3-15-4-12-5-11-7-7-5v-2l-4-2-7-8-3-6z" fill="#1B2F36"/>
<path transform="translate(852,1347)" d="m0 0h18l-2 2-32 13-29 12-76 32-14 6-4-1v-3l7-7 17-12 22-12 19-9 28-10 25-7z" fill="#EFE3ED"/>
<path transform="translate(1422,575)" d="m0 0 2 1-1 2 5 2 1 2-4 44 1 1v13l-5 8-7 6-7 1-6-4-2-5-2-1-4-13-1-2 8-4-2-17-10-4 1-9-2-1 7-4 5 1 3 1 17-10h2v-7z" fill="#22448B"/>
<path transform="translate(458,1100)" d="m0 0h1l6 46 5 51 3 43v54l-4 54-7 71-4 33h-1v-23l5-93 3-51v-35l-3-64-4-70z" fill="#1A2E35"/>
<path transform="translate(1540,205)" d="m0 0h2l6 11-9 6-23 13-24 14-52 30-8 4-3-8-2-4 9-6 12-7 23-13 21-12h2v-2l12-6 24-14z" fill="#1B2F37"/>
<path transform="translate(1286,738)" d="m0 0h2v16l-6 10-7 15-5 16-2 12v17l3 12 5 8 3 2 9 1v13l-9-1-19-11-9-8-6-12-2-9v-14l14 8 3-19 5-18 8-18 11-17z" fill="#2A454E"/>
<path transform="translate(1456,611)" d="m0 0h2v16l-2 6-1 7v14l1 21-10 3-8 5 5 3v2h-2l-2 4-7 9-4-1-2-1-3 4 1-12 13-70 14-7z" fill="#22448B"/>
<path transform="translate(1273,1531)" d="m0 0 4 2 16 11 17 8 14 4 8 1-2 9h-2v3h-2l-2 4-6 5-14 4-13 1-4-2-4-13v-2l-5-2-8-7-2-9 4-15z" fill="#FCBDA7"/>
<path transform="translate(765,440)" d="m0 0h1v23l-5 3-3-1v-7l-16 9-1 1v21l14-8 4-1v12l-13 8-5 3-1 22 6-1v10l-21 12h-1v-10l5-4 1-59-6 1v-10l26-15z" fill="#375963"/>
<path transform="translate(1359,816)" d="m0 0 7 1 4 4 1 3v14l-4 11-5 9-9 10-9 5h-9l-5-5-1-3v-12l4-12 7-12 7-7 8-5z" fill="#375963"/>
<path transform="translate(1489,741)" d="m0 0h7l4 2 3 7v10l-3 11-6 11-9 10-8 5-9 1-5-3-2-4v-15l4-11 6-10 7-8 8-5z" fill="#375963"/>
<path transform="translate(1476,554)" d="m0 0 6 2 5 4v16l-15 9-45 26h-1l2-29 13-8 26-15z" fill="#2B454F"/>
<path transform="translate(1309,675)" d="m0 0 7 1 5 5 1 4v9l-4 13-6 10-8 9-8 5-9 1-5-4-2-4v-12l5-15 6-9 9-9z" fill="#DDDDDE"/>
<path transform="translate(1539,542)" d="m0 0h6l4 2 3 5 1 9-3 13-6 11-9 10-5 4-7 3-7-1-4-4-2-10 3-14 6-12 9-10 8-5z" fill="#DDDDDE"/>
<path transform="translate(876,1371)" d="m0 0 2 1-12 12h-2v2l-8 6-64 24-39 15-5-1-11-5 3-3 82-31 43-16z" fill="#A59FAD"/>
<path transform="translate(1331,762)" d="m0 0h9l5 6v16l-4 11-7 11-9 8-6 3h-9l-5-5-1-4v-9l4-13 6-10 8-9z" fill="#375963"/>
<path transform="translate(1517,656)" d="m0 0 7 2 4 6v13l-5 14-7 10-9 8-6 3h-8l-5-5-1-2v-14l4-11 6-10 6-7 10-6z" fill="#375963"/>
<path transform="translate(1288,753)" d="m0 0h1v94h-10l-6-5-5-12-1-6v-17l3-16 7-19 9-17z" fill="#F4F0F4"/>
<path transform="translate(1414,464)" d="m0 0h1l1 78 5 3v12l-9 6-11 6-6-4v-12l5-3h2v-82l9-2z" fill="#1A2E35"/>
<path transform="translate(1411,419)" d="m0 0h9l8 5 2 4 1 7-3 12-5 9-5 6-7 5-9 1-9-6-3-6 1-12 7-14 6-7z" fill="#33545E"/>
<path transform="translate(1413,315)" d="m0 0h2v104l-8 3-5 3v-108l9-1z" fill="#1A2E35"/>
<path transform="translate(1527,610)" d="m0 0 6 4 6 8 4 10 2 12v13l-3 18-7 21-11 21-5 7h-1v-17l2-6 7-11 4-12v-15l-3-6-1-19-2-9-4-8 2-5z" fill="#2B4750"/>
<path transform="translate(1410,1418)" d="m0 0h2l6 12 2 3-6 39-3 21-1-2-5-2-12-7-7-6 2-10 4-11 14-28z" fill="#813C7B"/>
<path transform="translate(1421,730)" d="m0 0 4 5 10 6h9l4-1 2-6h2v3l6-3 1 19-6 14-2 9 1 12 2 6-5-2-4-2-7-8-6-9-7-17-3-13z" fill="#EAB3E5"/>
<path transform="translate(1402,755)" d="m0 0h1l-1 11-6 23-9 25-9 19-3 3-1-14-4-7-2-1v-34l2-3h2l-1 4 9-1v-6l4-1 1 3 7-6v-5l2-1 3 1 2-5z" fill="#E6B2E3"/>
<path transform="translate(1388,1462)" d="m0 0 1 4-2 10 12 9 11 6-1 14-2 12-3 1-12-6-6-7-3-7-8 6-3 9-3 17h-6l-1-1v-9l2-9 4-9 2-6 14-26z" fill="#FBBCA7"/>
<path transform="translate(1500,576)" d="m0 0h1l1 13 3 6 9 6 2 1h9l10-5 3-3 2 1-6 5-11 18-4 6v24l-1 1-17 1-2-2v-16l2-8v-8l-2-6-1-20z" fill="#E9B4E5"/>
<path transform="translate(1304,668)" d="m0 0 8 1 9 6 3 3 2 7v10l-4 13-4 8-7 9-8 7-8 4h-9l-11-6-1-3h-2l-2-7v-12l3-10 7-13 8-9 9-6zm5 7-10 5-9 9-5 8-5 15v12l4 6 3 2 9-1 9-6 8-9 7-14 2-8v-9l-3-7-6-3z" fill="#2C4650"/>
<path transform="translate(1533,535)" d="m0 0h7l10 5 5 6 2 8-1 11-5 14-7 10-4 5-10 7-5 2h-9l-10-6-4-5-1-3v-15l4-12 7-12 9-9 9-5zm6 7-8 4-9 8-5 7-5 12-2 12 2 9 4 4 7 1 10-5 9-9 6-10 4-11 1-10-2-7-4-4-2-1z" fill="#2B4750"/>
<path transform="translate(1486,609)" d="m0 0h7l4 4 1 2v12l-4 11-8 11-9 6-2 1h-7l-4-4-1-3v-10l4-11 6-9 4-5z" fill="#365862"/>
<path transform="translate(1356,684)" d="m0 0h8l4 5v14l-5 12-7 9-8 6-9 1-5-5-1-3v-7l4-13 6-9 7-7z" fill="#365862"/>
<path transform="translate(883,490)" d="m0 0h2v8l-17 50-3 8 14-8 1-8 4-3h2v18l-28 16-4 2v-8l18-53 2-5-5 2-7 4-2 9-6 3 1-19z" fill="#375963"/>
<path transform="translate(1326,817)" d="m0 0h2v11l-6 12-2 8v14l4 8 4 3v18l-3 1h-7l-6-3-4-9v-60h12z" fill="#EBB3E6"/>
<path transform="translate(884,593)" d="m0 0 6 1 3 4 1 4v20l-3 10-6 9-13 8-5 2v-6l3-1v-36h-3v-5l9-6z" fill="#375963"/>
<path transform="translate(1386,727)" d="m0 0h9l4 5v12l-5 13-7 9-8 6-9 1-5-5v-13l4-11 8-11z" fill="#375963"/>
<path transform="translate(1456,687)" d="m0 0h7l4 5 1 8-3 12-5 9-7 8-7 4h-9l-3-4-1-3v-8l3-10 7-12 7-6z" fill="#375963"/>
<path transform="translate(271,1614)" d="m0 0h2v11l-1 16v26l2 25v21l-2 12-5 13-7 12-7 6-5 2h-10l-10-5-11-9-8-11-6-13-3-13-1-8v-11l3-20 7-27 5-17 1 4-9 37-3 20v14l3 16 4 10 7 11 9 9 10 5h11l5-3h2v-2h2l2-4 7-12 4-17v-32l-1-11v-15l2-32z" fill="#1F313A"/>
<path transform="translate(1518,703)" d="m0 0 1 4v18l-1 34-4 13-4 8-9 10-2 1-1-5 2-7 5-13 1-4v-13l-3-7-1-3-3-1v-22l12-6 6-5z" fill="#EBB4E6"/>
<path transform="translate(398,1578)" d="m0 0 4 1 5 4 6 8 6 12 2 8v15l-2 4-10-3-9-6-8-9-2-7v-7l4-11z" fill="#2B454E"/>
<path transform="translate(810,1483)" d="m0 0 5 1 6 7 14 11 15 9 10 3h12l10-3 6-4 3-3v13l-5 5-8 5-5 1h-15l-9-3-14-9-9-7-9-9-6-10z" fill="#1A2F36"/>
<path transform="translate(1497,638)" d="m0 0 1 2v8l3 1v2l2 1h-3l-1 3-2 1 1 3 2 2-3 3-7-1 4 3-2 5-3 4-6-1-4 10-1 8v9l2 7-6-2v-16l-2-8-5-2-7-4h-3l-2-8v-19l4 5 7 4 6 1 9-3 10-9z" fill="#FAFAFA"/>
<path transform="translate(1369,709)" d="m0 0h1v12h2l1 4v4h-5l-3-1v2l3 2-1 4-3 5-7-2-3 9-2 10v7l2 7-1 7-3 6h-1v-11l-2-9-4-5-7-4-8-1-6 1 2-4 4-7 2-15 5 2 8 2 8-3 6-4 8-11z" fill="#FAFAFA"/>
<path transform="translate(1354,773)" d="m0 0 6 4 7 3 1 1v32l-5-1-3-2h-8l-9 4-3 2-1 3 3 1-2 4-7-1-1 2 5 2-5 8-5-1-1-4 1-2 1-12 4-5 5-5 3-5 2-2 5-11 1-3h2l3-9z" fill="#F0E4EE"/>
<path transform="translate(1327,685)" d="m0 0h1v17l-2 7v14l2 3v21l-6 8-11 9-3 2v-21l-5-1-16-6v-2l10-2 9-5 7-7 7-11 4-11 2-14z" fill="#EAB3E5"/>
<path transform="translate(736,575)" d="m0 0h1v17l-4 3h-2l-2-5-6 3-1 47 5-1v7l-9 6-7 4h-2v-8l4-3 1-46-6 3h-2l-1 9-6 3v-18l25-14z" fill="#375963"/>
<path transform="translate(1223,423)" d="m0 0 5 1-1 7-6 5-16 9-19 11-26 15-17 10-3 2h-5v-7l5-5 17-10 21-12 24-14 16-9z" fill="#E2E2E2"/>
<path transform="translate(1223,218)" d="m0 0 5 1-1 7-6 5-18 10-34 20-28 16-6 1v-7l5-5 19-11 45-26 17-10z" fill="#E2E2E2"/>
<path transform="translate(397,705)" d="m0 0 16 1 7 3 12 12 8 7 12 12 9 11 11 15 8 16 6 16 1 8-2-1-8-16-8-12-10-14-11-13-7-8-9-9-2-1v-2h-2v-2l-4-2-13-10-14-9z" fill="#FBFBFB"/>
<path transform="translate(293,1324)" d="m0 0 8 1-5 26-14 63-12 52-8 33h-1l1-11 10-57 17-87z" fill="#1A2E35"/>
<path transform="translate(1239,476)" d="m0 0 2 4-4 5-21 12-17 10-28 16-34 20-11 6h-4v-5l8-6 16-9 27-16 25-14 17-10 21-12z" fill="#E2E2E2"/>
<path transform="translate(1237,241)" d="m0 0 4 1-2 6-13 8-10 6-11 6-21 12-43 25-16 9h-3v-5l6-5 15-9 28-16 26-15 17-10z" fill="#E2E2E2"/>
<path transform="translate(1238,461)" d="m0 0h2v6l-10 7-16 9-14 8-62 36-10 6-6 1v-5l6-5 26-15 16-9 17-10 24-14 23-13z" fill="#E2E2E2"/>
<path transform="translate(1237,256)" d="m0 0h3l1 3-3 5-17 10-21 12-16 10-10 5-27 16-18 10-4 2h-3l1-6 5-4 21-12 62-36 23-13z" fill="#E2E2E2"/>
<path transform="translate(1236,272)" d="m0 0h5l-2 6-9 6-9 5-15 9-26 15-28 16-26 15h-4l1-6 9-6 43-25 49-28z" fill="#E2E2E2"/>
<path transform="translate(1237,446)" d="m0 0h3v6h-2v2l-16 9-17 10-21 12-26 15-17 10-16 9-3-1 1-6 13-8 23-13 24-14 14-8 17-10 16-9z" fill="#E2E2E2"/>
<path transform="translate(1551,1521)" d="m0 0 16 5-5 27-5 25-4 3h-7l-4-3 1-11 7-45z" fill="#1B2F36"/>
<path transform="translate(943,1325)" d="m0 0h13l21 5 34 11 27 6 23 3v1h-22l-24-4-20-6-10 3-29 11h-4l-1-3h-2l-1-4 14-12 4-4-9-3-7-1h-14l2-2z" fill="#1B2E36"/>
<path transform="translate(799,548)" d="m0 0 5 1 3 6 1 4v16l-3 12-6 9-4 2-5-1-3-5-1-3v-20l3-11 4-6z" fill="#F4F4F5"/>
<path transform="translate(766,661)" d="m0 0h5l3 3 1 3v9l-4 11-9 8-4 1 1 11h2v6l-12 7h-1v-6l4-2v-36l-4 1v-6z" fill="#375963"/>
<path transform="translate(1419,1433)" d="m0 0 5 4 5 6 11 9 2 4-5 24-2 1-16-9-5-4 2-17z" fill="#1A2E35"/>
<path transform="translate(1387,605)" d="m0 0 7 1 5 3-4 4-16 9-21 12-24 14-5 1-8-5 4-3 52-30z" fill="#375863"/>
<path transform="translate(1351,678)" d="m0 0h7l10 5 3 4 1 3v10l-1 13-2-3-6 11-6 7-7 5-8 2-9-3-3-2v11l-2 4-1-19-2-3v-14l3-8 2-3 6 1 2-7-2-1v-3l6 1v-3-3h2v-2zm5 6-8 5-7 7-6 12-2 8v7l3 6 3 2 9-1 9-7 7-10 4-10v-14l-4-5z" fill="#DDDCDE"/>
<path transform="translate(1356,825)" d="m0 0 5 1 3 3 1 9-3 10-6 9-8 6-2 1h-6l-4-5-1-6 2-9 6-10 9-8z" fill="#FAFAFA"/>
<path transform="translate(1486,750)" d="m0 0h6l4 5v11l-4 10-9 10-9 3-5-3-2-4v-8l5-12 8-9z" fill="#FAFAFA"/>
<path transform="translate(1442,1454)" d="m0 0 20 15-1 5-9 22-6 2h-13l2-13 6-29z" fill="#813C7B"/>
<path transform="translate(1480,603)" d="m0 0h8l10 5v2h2l2 6v8l-2 8-1 16-2-4v-5l-6 9-7 7-7 4-7 1-7-3-6-4-1-2-2 3v-14l2-10 4-8 5 2 4-7-3-1 1-3 5 1 1-2-2-1 1-4zm6 6-9 5-8 10-5 11-1 4v10l3 6 2 1h7l10-6 7-9 5-10 1-4v-12l-3-5-2-1z" fill="#DDDCDE"/>
<path transform="translate(1512,665)" d="m0 0 7 1 3 6-1 10-6 12-9 8-8 1-4-3-1-3v-8l4-11 9-10z" fill="#F9F9F9"/>
<path transform="translate(1331,770)" d="m0 0 6 2 2 4v9l-4 11-8 9-5 3h-8l-3-4v-12l6-12 7-7z" fill="#FAFAFA"/>
<path transform="translate(1627,1528)" d="m0 0h6l2 27-9 2-11 1-7-1-3-22v-4l17-2z" fill="#1B2E36"/>
<path transform="translate(1193,1296)" d="m0 0 5 1 11 6 6 3 4 1h13l12-5 5-5v13l-4 5-12 5-11 1-11-3-14-8-10-5z" fill="#1B2F36"/>
<path transform="translate(1137,1295)" d="m0 0h8l-2 4-19 9-20 6-16 3-11 1h-16v-2l36-12 24-7z" fill="#E9DEE8"/>
<path transform="translate(831,623)" d="m0 0h2v13l-4 2v-5l-9 5h-2v12l9-5h2v7l-10 6-1 14 10-6 2-7 4-1v13l-24 14h-1v-6l2-2v-35h-2v-6z" fill="#375963"/>
<path transform="translate(1415,622)" d="m0 0 6 1 5 4v13l-5 8-7 6-7 1-6-4-1-2v-10l5-10 7-6z" fill="#E1DFE1"/>
<path transform="translate(885,680)" d="m0 0 4 1 3 4v20l-5 10-6 5-7 4h-2l1-5 1-27h-2v-5l10-6z" fill="#375963"/>
<path transform="translate(1332,1557)" d="m0 0 10 1 22 4 16 6 17 6v9l-9-1-25-10-33-6-1-3z" fill="#1B2F36"/>
<path transform="translate(1306,686)" d="m0 0 6 1 2 4v8l-4 10-6 8-6 4-6 1-4-4v-10l3-8 7-9 5-4z" fill="#FBFBFB"/>
<path transform="translate(1536,553)" d="m0 0 7 1 2 6-2 11-6 10-7 6-6 2-4-2-2-8 3-11 7-10z" fill="#FBFBFB"/>
<path transform="translate(1476,554)" d="m0 0 6 2 4 4-17 10-21 12-19 11h-1v-11l13-8 26-15z" fill="#375963"/>
<path transform="translate(1203,324)" d="m0 0h2v5h6v2l-6 1-2-1-5 7-6 1-3 1-5 5-3 1-3 5-4 1h-3l-5 6-4-1-8 10-5 3h-5l-2-2-1-9h-11v-1l13-2 1-6 5-8 7-6h6l1 4-3 5-8 8-6 4-2 10 8-3 8-11 4-9h2l-1 10 7-10 3 1 1 2 5-9h2l1 3 5-7 3-8 2 1-1 8 3 1 2-5z" fill="#E2E2E2"/>
<path transform="translate(1203,529)" d="m0 0h2v5h6v2l-6 1-2-1-5 7-6 1h-2l-5 6-4-1-2 5-3 3-4-1-6 7-4-1-9 11-4 2h-5l-2-2-1-9h-11v-1l13-2 1-6 6-10 6-4h6l1 4-4 6-7 7-6 4-2 10 6-2 5-5 7-11 2-5h2l-1 10 7-10 3 1 1 2 4-7 1-2h2l1 3 5-7 3-8 2 1-1 9 5-5z" fill="#E2E2E2"/>
<path transform="translate(1416,268)" d="m0 0 6 1 6 3 3 4 1 4v7l-3 10-6 10-8 8-4 2h-9l-8-5-3-9 2-12 6-11 9-9zm1 6-8 6-7 9-4 12 1 10 5 4 9-2 9-8 6-12 1-4v-10l-3-5z" fill="#2A454E"/>
<path transform="translate(1411,419)" d="m0 0h9l8 5 2 4 1 7-3 12-5 9-5 6-7 5-9 1-9-6-3-6 1-12 7-14 6-7zm6 5-8 5-6 7-4 8-2 6v9l3 5 1 1h7l7-4 8-9 4-9 1-4v-10l-5-5z" fill="#2A464F"/>
<path transform="translate(1388,1462)" d="m0 0 1 4-2 10 1 4-5 18-8 6-3 9-3 17h-6l-1-1v-9l2-9 4-9 2-6 14-26z" fill="#E0DCE0"/>
<path transform="translate(328,1101)" d="m0 0h1v12l-5 60-5 46-3 23h-1v-30l1-30 4-25z" fill="#1B2F36"/>
<path transform="translate(1230,500)" d="m0 0h8l3 5v7l-5 10-7 6-7 1-4-4v-9l5-10z" fill="#22448B"/>
<path transform="translate(1230,295)" d="m0 0h8l3 5-1 10-5 8-6 5-7 1-4-4v-8l4-10z" fill="#22448B"/>
<path transform="translate(706,783)" d="m0 0h5l2 2v13l-6 9-6 4-1 7h3v5l-10 5v-5l3-1v-27h-3v-5z" fill="#375963"/>
<path transform="translate(842,408)" d="m0 0h6l3 5v9l-4 10-6 5-7 4h-2v-26l5-4z" fill="#EFEFF1"/>
<path transform="translate(1427,633)" d="m0 0 5 2-1 12-4 4-12 7-8 4-12 7h-2l-4-20 7-4 4 1 3 6 4 2 7-1 8-7 4-10z" fill="#304652"/>
<path transform="translate(739,841)" d="m0 0h5l2 2 1 4v11l-3 9-5 6-10 5v-4h2v-24h-2l1-4z" fill="#375963"/>
<path transform="translate(1385,735)" d="m0 0 6 1 2 4-1 10-5 8-7 6h-6l-3-4v-8l5-10 7-6z" fill="#EEEEEF"/>
<path transform="translate(1453,696)" d="m0 0h6l2 3v10l-4 8-8 7-6 1-3-3-1-7 3-9 8-9z" fill="#EEEEEF"/>
<path transform="translate(244,877)" d="m0 0 1 4-3 6-9 3-22 5-10 3-12 6h-2l2-4 8-6 16-8 26-8z" fill="#ABA9B6"/>
<path transform="translate(1376,1353)" d="m0 0 11 7 18 13 2 1 1 5v12l-7-4-11-9-10-14-4-8z" fill="#813C7B"/>
<path transform="translate(1304,668)" d="m0 0 8 1 3 3-10 1-8 5-5 4-6 8-7 14-3 13-6-3 1-10 4-10 6-10 7-8 9-6z" fill="#375963"/>
<path transform="translate(1533,535)" d="m0 0h7l5 2v1l-9 2-8 4-9 9-8 14-3 10-1 7-6-3v-7l4-12 7-12 9-9 9-5z" fill="#375963"/>
<path transform="translate(756,754)" d="m0 0h1v10h-4-3l-4 2-1 9 6-3h2v5l-6 4h-2v11l7-4 3-6 2-1v10l-9 6-10 5v-5l2-2 1-26h-3l1-5z" fill="#375963"/>
<path transform="translate(882,601)" d="m0 0 4 1 2 4v18l-3 8-5 5-4 1v-33z" fill="#EDEDEF"/>
<path transform="translate(1567,1526)" d="m0 0 20 4 18 1-1 3 1 6-1 3h2v2l-4 1-11-6-10-6-6 1-7 4h-3l1-11z" fill="#F9F5F9"/>
<path transform="translate(886,756)" d="m0 0h6l1 2v9l-3 6-6 5h-2v7h2l-1 5-5 3h-2l1-4v-23l-1-4z" fill="#375963"/>
<path transform="translate(797,730)" d="m0 0 7 1v8l-4 2v-5l-7 3-3 7v15l2 3 5-2 2-2 2-7 3-1v8l-6 8-5 3-5-1-3-4-1-3v-12l4-13 5-6z" fill="#375963"/>
<path transform="translate(848,701)" d="m0 0h1v10l-3 1v-3l-8 4-1 10 7-4h2v5l-8 5-1 10h3l-1 5-9 5v-5l2-2 1-26h-3v-5z" fill="#375963"/>
<path transform="translate(1394,563)" d="m0 0 8 5 5-3 3 1-22 13-10 6-5-2-5-3v-2l25-14z" fill="#365862"/>
<path transform="translate(1415,432)" d="m0 0h5l2 3-1 9-6 10-5 3h-5l-2-3 1-9 3-6 5-5z" fill="#375963"/>
<path transform="translate(309,644)" d="m0 0h1l1 36-3-3-9-15-6-12v-2l13-2z" fill="#1E2F38"/>
<path transform="translate(1417,281)" d="m0 0 5 1 1 2v7l-4 9-7 6-4 1-3-2-1-4 2-8 4-6z" fill="#365862"/>
<path transform="translate(662,1438)" d="m0 0 23 10 7 1 2-1h10l-4 3-20 7-17-9-1-1z" fill="#1B2F36"/>
<path transform="translate(1446,1497)" d="m0 0h3l-3 11-2 5-7 6-8 2 1-11 3-12z" fill="#F9BBA7"/>
<path transform="translate(1419,547)" d="m0 0h2v10l-9 6-11 6-6-4v-12l6 3 6-2z" fill="#1A2E35"/>
<path transform="translate(1283,790)" d="m0 0h1v24l-10 6h-2v-23l8-5z" fill="#DAD9DB"/>
<path transform="translate(1216,1551)" d="m0 0h7v3l-6 4-6 8-5 15-1 1h-6l-1-1 1-9 4-10 7-8z" fill="#F0F0F2"/>
<path transform="translate(1406,662)" d="m0 0h2l-1 10-3 16-2 16-2-4-6-26 1-4 4-4z" fill="#F8F7F8"/>
<path transform="translate(1244,1553)" d="m0 0h6l-1 5-3 9-2 17-2 2h-5l-2-2v-10l3-12 3-6h2z" fill="#F0EFF1"/>
<path transform="translate(798,900)" d="m0 0 5 1 1 2v13l-4 8-3 2-5-1-1-1v-15l5-8z" fill="#375963"/>
<path transform="translate(877,855)" d="m0 0 4 1 1 2v13l-4 8-7 4h-2v-23z" fill="#375963"/>
<path transform="translate(1231,1553)" d="m0 0h7l-6 8-4 9-3 14-1 1-7-1-1-4 3-14 2-4 8-7z" fill="#F1F1F2"/>
<path transform="translate(707,859)" d="m0 0h1v9l-3 1v-3l-5 3h-2v8l7-3v5l-6 2v9l6-2 1-5 2-1v9l-14 8-1-4 1-1v-22l-1-5z" fill="#375963"/>
<path transform="translate(1132,1165)" d="m0 0h4v3h2l3 7 5 4 7 8 6 7-3 4 2 4-4-2-15-13-1-1-1-15z" fill="#DDDDDE"/>
<path transform="translate(1384,784)" d="m0 0 4 1v14l-5 4-5 3-5-1v-13l4-4z" fill="#F9F7F8"/>
<path transform="translate(1450,746)" d="m0 0 3 1v14l-4 4-7 4-4-1v-12l5-6z" fill="#F9F8F9"/>
<path transform="translate(937,375)" d="m0 0h2l1 8v10l-4 2v-8l-2 2v7l-8 5h-2v-4l-1-5h2l-1-9 7-4h2z" fill="#A5AAB3"/>
<path transform="translate(856,773)" d="m0 0h2l-1 8-8 23 5-3h2v-5l3-1v7l-4 4-11 6 1-9 7-20v-2l-5 2-1 5-2 1v-9z" fill="#375963"/>
<path transform="translate(784,815)" d="m0 0h1v8l-3 1-1-2-5 3-1 8 7-3v5l-5 3h-2v9h2v4l-8 4 1-5 1-23h-2l1-4z" fill="#375963"/>
<path transform="translate(882,687)" d="m0 0 5 1 1 3v13l-3 7-5 4-2-1v-24z" fill="#E9E8EB"/>
<path transform="translate(1438,1569)" d="m0 0h2l-1 7-4 6-10 4h-10l2-10 16-4z" fill="#1B2F36"/>
<path transform="translate(1391,631)" d="m0 0 3 1 3 9-1 5-5 3-6-1-9-6 1-3z" fill="#F6F5F6"/>
<path transform="translate(818,795)" d="m0 0 5 1v7l-3 1v-4l-6 3-3 10 1 11 6-2 2-7 3-1v7l-5 7-2 1h-6l-3-4v-15l4-10 5-4z" fill="#375963"/>
<path transform="translate(1373,1500)" d="m0 0 3 1-2 5-3 12-2 12h-6l-1-1v-9l2-9 4-8h2v-2z" fill="#EFEFF0"/>
<path transform="translate(1434,540)" d="m0 0 5 1 6 4-3 3-18 10h-3v-11l10-5z" fill="#375963"/>
<path transform="translate(937,578)" d="m0 0 2 1-1 7h-1v-5l-2 2-1 5 6-2v2h2v7l-5 2-3 3-8 4-1-2h2l-1-3h2v2h2v-6l1-2-3 3v2l-5-1v-2l4-2-2-1 1-7 5-2-1 3h-3v2l4-1v3l1-2 1-7zm-14 20 2 1-1 6h-1z" fill="#9CA1AC"/>
<path transform="translate(1411,419)" d="m0 0h9l2 2-9 3-6 4-4 5-6 12-2 9-5-2 2-11 6-11 6-7z" fill="#365862"/>
<path transform="translate(1522,620)" d="m0 0 4 2 5 8 2 6 1 7v15l-1 7-2-2-3-6-1-19-2-9z" fill="#1A2F36"/>
<path transform="translate(1417,629)" d="m0 0 4 1 1 1v7l-5 8-3 3-5 1-2-3 1-8 4-6z" fill="#FBFBFB"/>
<path transform="translate(1416,268)" d="m0 0 6 1-2 2-7 3-8 7-5 9-3 9-1 5-1-2-4 1 2-12 6-11 9-9z" fill="#375963"/>
<path transform="translate(1191,1235)" d="m0 0 4 2 5 6 8 16 1 8-9-2-2-1-2-17z" fill="#DADADB"/>
<path transform="translate(936,483)" d="m0 0h2l1 7 1 3v7l-4 2v-7h-3l1 2v7h-4v2h-2l-2 3h-2v-7l-1-3 6-3 1-2h-2l-2-5 5-2v7h3l-1-2v-7z" fill="#9EA1AB"/>
<path transform="translate(938,253)" d="m0 0h1l1 10h-2v9l-3 1-1-5 2-2-6 3 1 1v7h-1v-5l-1 1v5h-3v-6h-3v-2l1-1v-8l8-4 2 1v-3z" fill="#C3C6CB"/>
<path transform="translate(826,884)" d="m0 0 5 1v9l-3 5-5 2v6h2l-2 4-4 1v-24z" fill="#375963"/>
<path transform="translate(1520,620)" d="m0 0 4 4 3 7v24l-4-2-1-4v-12l-4 1v-14z" fill="#F6F4F6"/>
<path transform="translate(806,950)" d="m0 0 5 1 1 1v11l-3 6-3 2-4-1-1-2v-9l4-8z" fill="#375963"/>
<path transform="translate(783,1040)" d="m0 0h5l1 2v11l-4 6-2 2-4-1-1-2v-9l3-7z" fill="#375963"/>
<path transform="translate(851 1e3)" d="m0 0 5 1 1 1v10l-3 6-5 3-3-3v-10l3-6z" fill="#375963"/>
<path transform="translate(713 1e3)" d="m0 0 4 1 1 1v12l-4 6-5 3h-2l1-3 1-14h-2l1-3z" fill="#375963"/>
<path transform="translate(806,1027)" d="m0 0 4 1 1 1v11l-3 6-6 4h-2l1-3 1-14h-2l1-3z" fill="#375963"/>
<path transform="translate(1321,644)" d="m0 0 10 5v17l-5-2-5-3z" fill="#1B2E36"/>
<path transform="translate(1356,825)" d="m0 0 5 1 3 3 1 9-3 10-6 9-8 6-2 1h-6l-4-5-1-6 2-9 6-10 9-8zm-1 2-7 4-6 7-4 8-1 10 3 6h6l8-5 4-4 5-13v-8l-3-5z" fill="#CDCCD0"/>
<path transform="translate(1367,579)" d="m0 0 9 5 1 1v16l-6-2-4-3z" fill="#1A2E35"/>
<path transform="translate(563,802)" d="m0 0 5 2 2 4-3 1-2 4-4 5-6 12h-2l-1 2v-7l3-9 5-10h2z" fill="#ACAAB7"/>
<path transform="translate(1331,770)" d="m0 0 6 2 2 4v9l-4 11-8 9-5 3h-8l-3-4v-12l6-12 7-7zm-1 2-7 4v2l-4 2-6 11-1 10 3 5 4 1 10-5 3-5 5-10v-12l-4-3z" fill="#D3D2D6"/>
<path transform="translate(355,586)" d="m0 0h7l3 3 1 5-3 5-1 1h-7l-4-5 1-6z" fill="#1F2F39"/>
<path transform="translate(410,584)" d="m0 0 7 1 3 5-1 5-3 3h-7l-4-5 1-6z" fill="#1F2F38"/>
<path transform="translate(764,669)" d="m0 0 4 1 1 2-1 9-2 4-8 4v-16z" fill="#F0EFF1"/>
<path transform="translate(738,846)" d="m0 0 4 1 1 1v13l-3 6-2 2h-3v-21z" fill="#E8E7EA"/>
<path transform="translate(936,1035)" d="m0 0h2v8l2 1v8l-4 2v-7-1l-3 1 1 4v5h-3v2l-3-1 1-6h3v-2l-6-1v-7h2l1-2h2v7h2v-9z" fill="#C3C3CA"/>
<path transform="translate(364,1224)" d="m0 0 2 3 4 20v3l-11 2 4-25z" fill="#D5D3D7"/>
<path transform="translate(1512,665)" d="m0 0 7 1 3 6-1 10-6 12-2 1 1-4 4-8 1-3v-9l-2-3-7 1-5 3-6 8-3 8v9l1 4h9l-3 2-7-1-3-5v-8l4-11 9-10z" fill="#CCCACF"/>
<path transform="translate(743,932)" d="m0 0h1v7h-2v-2l-5 3v5l5-2v4l-5 3-1 6 6-2v-4h2v6l-11 7-1-3 1-1 1-18h-2l2-4z" fill="#375963"/>
<path transform="translate(936,878)" d="m0 0h2v7h-1v-5l-2 1-1 6 6-2v10l-4 2v-7-1l-3 2 1 1v7l-7 4h-3v-6l-1-3 9-5 1-9z" fill="#989EA8"/>
<path transform="translate(1328,873)" d="m0 0 7 3 10 1-5 5-8 7-4 1z" fill="#F0E4EE"/>
<path transform="translate(1419,577)" d="m0 0h2v6l-19 11-6-3 3-3z" fill="#1C2F37"/>
<path transform="translate(1567,1526)" d="m0 0 20 4-1 2h-2v2l2 1-9-1-9 5h-3l1-11z" fill="#F5F2F5"/>
<path transform="translate(854,868)" d="m0 0h2l-2 9-4 12 1 1 2-1 2-4h1v7l-9 5h-2l1-6 5-15-1-1-2 1-2 4h-1v-7z" fill="#375963"/>
<path transform="translate(364,632)" d="m0 0 15 3 9 3-2 5-3 3h-4l-4-6-11-4z" fill="#9F4D9B"/>
<path transform="translate(936,735)" d="m0 0h2v7h-1v-5l-2 2-1 6 6-2v10l-4 1v-7h2l1-2-9 5-2 2v7l-4 2v-7-3l5-3-3-1-1-5 4-1v-2h2v7h2v-9z" fill="#8C949F"/>
<path transform="translate(715,948)" d="m0 0h1v7l-7 1v6l4-1-1 4-4 1v7h2v3l-6 3v-24z" fill="#375963"/>
<path transform="translate(1365,686)" d="m0 0 3 3v14l-5 12-7 9-8 6-8 1v-2l7-2 10-9 7-14 1-3z" fill="#1F363D"/>
<path transform="translate(941,1644)" d="m0 0 8 1 3 3-1 3-7 4-5-1-6-4 4-4z" fill="#E297DC"/>
<path transform="translate(759,1054)" d="m0 0h5v9l2 7h-4v-5l-4 1 1 8-4 2v-19z" fill="#536F78"/>
<path transform="translate(1495,612)" d="m0 0 3 3v12l-4 11-8 11-9 6-2 1h-6l2-2 7-3 8-7 6-10 3-9z" fill="#233C44"/>
<path transform="translate(831,1013)" d="m0 0 3 1v7l-3 5-3 2-1 4h2v2l-5 2v-19z" fill="#385963"/>
<path transform="translate(653,539)" d="m0 0h3v6 1l2 1-1 2v7l-6 4h-2l-1-9 2-6 1-5z" fill="#B2B5BD"/>
<path transform="translate(350,564)" d="m0 0 6 1 3 3v2l-14 7h-2v-7l4-5z" fill="#212F3A"/>
<path transform="translate(797,904)" d="m0 0 4 1 1 8-2 7-2 2h-4l-1-3v-7l3-7z" fill="#EAE9EC"/>
<path transform="translate(411,563)" d="m0 0h7l5 6v5l-3 1-13-6 1-4z" fill="#1F303A"/>
<path transform="translate(784,963)" d="m0 0h5v8l-4 5h-2l1 7-5 3 1-4 1-13h-2v-3z" fill="#5C777F"/>
<path transform="translate(929,662)" d="m0 0h2v7h3v7l-3-1-1 3 4-1-1 3-8 3v-6l-2-1v-2l6-2-1-2h-3l2-7z" fill="#A4ABB3"/>
<path transform="translate(767,918)" d="m0 0h2v3h-2l1 17 3-2 2-4h1v7l-11 6v-24z" fill="#375963"/>
<path transform="translate(930,954)" d="m0 0 1 4v4l9-4v2l-1 1h1v7l-4-1v-4l-4 2h2l-1 7-2-3v5h-2v-8l-2-1-1-1v-8z" fill="#B7BAC0"/>
<path transform="translate(930,826)" d="m0 0 1 3v5l-1 1 2 1v1h2v7l-9 4-1-9 1-9 3-1v3h2l-1-5z" fill="#A9ADB6"/>
<path transform="translate(1391,593)" d="m0 0 7 4 1 4v8l-11-4 1-9-2-1z" fill="#CF69C9"/>
<path transform="translate(857,1045)" d="m0 0 4 1v11l-4 5-4-1v-11z" fill="#375963"/>
<path transform="translate(1396,645)" d="m0 0 4 1 3 7-9 5h-2l-1 2-2-11z" fill="#375863"/>
<path transform="translate(654,1041)" d="m0 0 2 1-1 7 3-1v2l-4 1v2h2l-1 7-5 2v-7h-3v-2l3-2v-7z" fill="#A4A9B2"/>
<path transform="translate(1400,626)" d="m0 0 2 4-1 9-1 7-3-1-4-13-1-2z" fill="#D06ACA"/>
<path transform="translate(747,1109)" d="m0 0 4 1v10l-3 5-5 2v-16z" fill="#375963"/>
<path transform="translate(705,789)" d="m0 0h3l1 2v6l-3 5-6 2v-12z" fill="#E3E2E6"/>
<path transform="translate(739,989)" d="m0 0h2v5l-2 1v-2l-4 1 1 5 3-1v3l-4 1v6l4-1 1-4h1v5l-8 5h-2l1-3v-13-4z" fill="#375963"/>
<path transform="translate(654,1114)" d="m0 0h2v6l-3 3 5-2-2 5v2l-1 5-4 1-1-6h-3v-2h3v-9z" fill="#88929D"/>
<path transform="translate(654,898)" d="m0 0 2 1-1 7 3-1-1 3-3 1 2 1v6l-4 3h-2v-4-3l-2-1 4-4h-2v-6z" fill="#929AA4"/>
<path transform="translate(855,922)" d="m0 0h1v6h-6v5l4-1-1 3-2 1v5l5-4v5l-7 4h-2v-19z" fill="#385963"/>
<path transform="translate(739,1066)" d="m0 0h1v5l-5 1-1 4 5-1-1 3-3 2-1 5 4-2 2-3v5l-8 5-1-2v-17z" fill="#375963"/>
<path transform="translate(785,1690)" d="m0 0h6l-1 3 28 1v1l-32 1-12 1 3-3-1-2z" fill="#E8CDE6"/>
<path transform="translate(778,1131)" d="m0 0 4 1v10l-3 4h-4l-1-7 3-7z" fill="#375963"/>
<path transform="translate(876,859)" d="m0 0 3 1v12l-2 4-4 1v-16z" fill="#E4E3E7"/>
<path transform="translate(1480,753)" d="m0 0 2 1-7 8-5 11v10l3 3 6-1 4-3 3 1-5 4-7 2-5-3-2-4v-8l5-12z" fill="#CCCBD0"/>
<path transform="translate(654,986)" d="m0 0h2v6l-1 1 2 2-2 1v3l-1 3 1 1v2l-5 2v-7h-3v-2l4-2-1-5 1-3z" fill="#979EA8"/>
<path transform="translate(965,981)" d="m0 0 2 1v15l-2 3h-3l-1-4v-7l2-6z" fill="#889AA1"/>
<path transform="translate(960,863)" d="m0 0h3v16l-3 3h-2l-1-5 1-4v-7z" fill="#698088"/>
<path transform="translate(1415,542)" d="m0 0 6 3v2l-18 10-5-2-2-1v-2l6-2v4l12-7z" fill="#2A454E"/>
<path transform="translate(932,1008)" d="m0 0h2v10h-3v2l-2-1-1-2-1 5-3 1 1-3-2-7z" fill="#828E98"/>
<path transform="translate(874,911)" d="m0 0h4v5l-4-1-3 5v6l1 2 3-1 3-4v5l-4 4-5-1-1-2v-9l4-8z" fill="#375963"/>
<path transform="translate(1498,781)" d="m0 0h1l1 11-8 4-7 1v-2l5-2 2-4 4-4z" fill="#F0E4EE"/>
<path transform="translate(858,1085)" d="m0 0h4v11l-4 4-3 1v-14z" fill="#375963"/>
<path transform="translate(653,821)" d="m0 0h3v6l-1 2 3-1v2l-3 1-1 2 2 1h-2l1 6-5 1 1-6 2-2h-3v-10h3z" fill="#A6A8B3"/>
<path transform="translate(806,953)" d="m0 0 4 1v9l-3 5-3-1-1-2 1-9z" fill="#E6E5E8"/>
<path transform="translate(931,496)" d="m0 0 3 1v7h-4v2h-2l-2 3h-2v-7l-1-3z" fill="#CDD0D4"/>
<path transform="translate(783,1043)" d="m0 0h3l1 2v8l-2 4-3 1-2-3 1-10z" fill="#E5E4E7"/>
<path transform="translate(764,975)" d="m0 0h1v5l-5 1-1 5 5-2v3l-5 2v6h2v2l-5 2v-19z" fill="#375963"/>
<path transform="translate(851 1e3)" d="m0 0h3l1 2v7l-3 5h-3l-1-2v-7z" fill="#E7E7E9"/>
<path transform="translate(960,937)" d="m0 0h3l1 2v11l-2 2-1-3-3 1-1-2v-7z" fill="#7D8E96"/>
<path transform="translate(1268,698)" d="m0 0 4 2-1 8v12l1 7-4-1z" fill="#CD67C6"/>
<path transform="translate(928,259)" d="m0 0 1 2v4l4 2-3 2 1 1v7h-1v-5l-1 1v5h-3v-6h-3v-2l1-1v-8z" fill="#88939D"/>
<path transform="translate(1331,770)" d="m0 0 6 2 2 4v9l-4 11-5 6-1-3 4-5 3-7v-12l-3-2-6 1-4 1 3-3z" fill="#CDCCD1"/>
<path transform="translate(937,657)" d="m0 0 2 1v7l1 2v1 7l-4 2v-8h-2l-1-2v-7z" fill="#B8BAC2"/>
<path transform="translate(833,935)" d="m0 0h2v5l-4-1 1 17-4 1 1-16-2 1-1 3h-2v-5z" fill="#375963"/>
<path transform="translate(875,987)" d="m0 0h2v5h-3v16l-4 2v-16h-2l-1 3v-5z" fill="#375963"/>
<path transform="translate(1486,750)" d="m0 0h6l4 5v11l-4 10-5 6-1-3 6-9 2-8-1-8-1-1h-10l1-2z" fill="#CDCCD1"/>
<path transform="translate(961,721)" d="m0 0h2v2l-3 3v2h3l1 7-3 5h-3v-15z" fill="#6D858C"/>
<path transform="translate(1416,585)" d="m0 0 3 1-4 3-6 3-8 5h-5l-4-4 2-2 5 1 3 1z" fill="#EAD8E8"/>
<path transform="translate(1158,543)" d="m0 0h3l-2 5-8 8-5 2 4-8 5-5z" fill="#FBFBFB"/>
<path transform="translate(1158,338)" d="m0 0h3l-2 5-8 8-5 3 2-6 7-8z" fill="#FBFBFB"/>
<path transform="translate(1330,824)" d="m0 0 6 2v3l-4 6-5-1-1-4z" fill="#FAFAFA"/>
<path transform="translate(1306,769)" d="m0 0 6 3-5 9-6-2 1-5z" fill="#F9F6F9"/>
<path transform="translate(1462,749)" d="m0 0 5 2v3l-4 6-6-2 1-5h2z" fill="#FAFAFA"/>
<path transform="translate(727,1161)" d="m0 0 4 1-1 6-4 2 1 6-4 1v-14z" fill="#57727B"/>
<path transform="translate(711,1082)" d="m0 0h2l-1 3-1 13 4-2 2-3v6l-7 4h-2v-19z" fill="#375963"/>
<path transform="translate(842,1054)" d="m0 0h2l-1 4h-4v4l3-1-1 3h-2v5l5-4-1 5-5 3h-2v-15z" fill="#375963"/>
<path transform="translate(885,761)" d="m0 0h4v7l-5 5h-2v-10z" fill="#E5E5E8"/>
<path transform="translate(654,1160)" d="m0 0 1 2v6l3-1v2l-4 1v2h2v6l-3 1 1-3-2-3-4-1 2-2v-7z" fill="#8F98A2"/>
<path transform="translate(1430,691)" d="m0 0 6 1 1 2-4 6-4 1-2-2 1-5z" fill="#FAFAFA"/>
<path transform="translate(939,588)" d="m0 0h3v7l-5 2-2 2h-3l2-4v-2l-2 1 1-3z" fill="#E5E5E6"/>
<path transform="translate(713,1007)" d="m0 0h2l1 2v8l-3 5h-2v-14z" fill="#E2E1E4"/>
<path transform="translate(936,878)" d="m0 0h2v7h-1v-5l-2 1-1 6 6-2v10l-4 2v-7-1l-4 3-3-1 3-2 1-9z" fill="#7D8994"/>
<path transform="translate(937,745)" d="m0 0h2l-3 9-5 1v3h-2v-8z" fill="#EFEFF0"/>
<path transform="translate(653,539)" d="m0 0h3v6 1l2 1-2 2h-3v2l-5 2 2-10 1-3z" fill="#989EA8"/>
<path transform="translate(806,1030)" d="m0 0h2l1 2v8l-2 4-3 1v-14z" fill="#E4E3E6"/>
<path transform="translate(654,417)" d="m0 0 2 1-1 7 3-1v2l-9 5h-2v-2l3-2v-7z" fill="#979EA8"/>
<path transform="translate(731,1118)" d="m0 0 1 4-4 1-1 4 4-1v2l-3 2v6l-4 2v-16z" fill="#375963"/>
<path transform="translate(964,1020)" d="m0 0h2v19h-3v-14h-2v-2z" fill="#929DA5"/>
<path transform="translate(1359,716)" d="m0 0 1 3-6 7-9 5h-5v-2l7-2 10-9z" fill="#233B43"/>
<path transform="translate(1275,692)" d="m0 0 1 2-3 6-5-2v28h-1v-29z" fill="#E298DC"/>
<path transform="translate(962,565)" d="m0 0h1l1 13-2 6-2-3-3 1 2-10h1v-3z" fill="#3E5E68"/>
<path transform="translate(746,1150)" d="m0 0 1 4h-3v3l2-1-2 4v3h2l1-3-1 5-6 3v-14z" fill="#375963"/>
<path transform="translate(655,428)" d="m0 0h2v7h-3v2l-6 2 1-4-1-2 1-2z" fill="#949AA5"/>
<path transform="translate(856,1048)" d="m0 0h3l1 7-3 5h-2l-1-2 1-9z" fill="#DEDDE1"/>
<path transform="translate(852,927)" d="m0 0 4 1-1 11-5 3v-6l4-4-4 1v-5z" fill="#D6D5DA"/>
<path transform="translate(716,1713)" d="m0 0h5l-1 3v3l-7 5-1-3 2-7z" fill="#EDEAED"/>
<path transform="translate(822,1065)" d="m0 0h4l-1 4-4-1-1 8 2 3h2l1-5 1 4-4 4h-3l-1-2v-9z" fill="#375963"/>
<path transform="translate(657,653)" d="m0 0 1 2-2 1v8l-3 1-1 2h-2v-7h-2v-2z" fill="#7C8793"/>
<path transform="translate(214,1624)" d="m0 0 1 4-6 25-3 1 4-16z" fill="#33384A"/>
<path transform="translate(207,1653)" d="m0 0 1 4-4 19-3-1 3-16z" fill="#293442"/>
<path transform="translate(937,375)" d="m0 0h2v9l-7 3v-3h2v-7z" fill="#C8C7CE"/>
<path transform="translate(271,1614)" d="m0 0h2v11l-1 12h-2v-15z" fill="#1A2E35"/>
<path transform="translate(654,898)" d="m0 0 2 1-1 7 3-1-1 3-7-1v-6z" fill="#A0A4AE"/>
<path transform="translate(930,826)" d="m0 0 1 3v5l-1 1 2 1-6 4-2-1 1-9 3-1v3h2l-1-5z" fill="#85929B"/>
<path transform="translate(1464,615)" d="m0 0 5 2-2 5-3 3-4-4z" fill="#FBFBFB"/>
<path transform="translate(939,383)" d="m0 0h1v10l-4 2v-8l-3 2-3-1z" fill="#8F97A2"/>
<path transform="translate(1439,1251)" d="m0 0h2l-3 12-5-2v-2l2-2-1-4z" fill="#ECE7EB"/>
<path transform="translate(656,1205)" d="m0 0h2v2l-3 2 1 1v5l-3 1-2 2-1-7-2-1z" fill="#929AA4"/>
<path transform="translate(769,1096)" d="m0 0 1 4-4 1-1 4 4-1v2l-3 2v6l-3 1v-15z" fill="#375963"/>
<path transform="translate(805,1075)" d="m0 0h2l-1 4-3 1v3l3-1-2 4h-2l1 7-3 1v-16z" fill="#375963"/>
<path transform="translate(1335,690)" d="m0 0 4 2-2 5-1 2-5-1 1-5z" fill="#FBFBFB"/>
<path transform="translate(778,1133)" d="m0 0 3 1-1 9h-4v-7z" fill="#DDDCE0"/>
<path transform="translate(939,830)" d="m0 0 1 3v7l-4 2-1-7-3-1z" fill="#9298A3"/>
<path transform="translate(1495,686)" d="m0 0 1 2v9l1 4h9l-3 2-7-1-3-5v-8z" fill="#C9C8CD"/>
<path transform="translate(929,662)" d="m0 0h2v7l3 1-5 2-1-2h-3l2-7z" fill="#8D95A0"/>
<path transform="translate(931,591)" d="m0 0 2 1 3 1-2 4 1 1-4 4-5 2-1-2h2l-1-3h2v2h2v-6l1-2-2-1z" fill="#838C98"/>
<path transform="translate(794,1122)" d="m0 0 1 2-1 10 4-3v4l-7 3v-14z" fill="#375963"/>
<path transform="translate(841,1057)" d="m0 0h2v7h2v5l-2-2-4 2v-5l2-2h-2v-4z" fill="#D8D6DB"/>
<path transform="translate(936,483)" d="m0 0h2v9l-4 1-1-1v-7z" fill="#C2C3C9"/>
<path transform="translate(747,1111)" d="m0 0 2 1v9l-4 2v-11z" fill="#DBDBDF"/>
<path transform="translate(931,1047)" d="m0 0h2l1 4v5h-3v2l-3-1 1-6h3v-2l-3-1z" fill="#9094A1"/>
<path transform="translate(825,888)" d="m0 0h3l1 4-3 5-3 1v-8z" fill="#E1E0E3"/>
<path transform="translate(949,1601)" d="m0 0 3 1h16l2-1 5 1v2h-30l2-2 2 1z" fill="#E6C0E2"/>
<path transform="translate(829,1102)" d="m0 0h2l-1 3-3 1-1 3 4-1-1 3-2 1v6l-3 1v-14z" fill="#375963"/>
<path transform="translate(923,894)" d="m0 0h6v7l-2 2h-3v-6z" fill="#C7C7CD"/>
<path transform="translate(811,1112)" d="m0 0h4v3h-4l-1 2v7h2l3-4-1 5-2 2-4-1v-10z" fill="#375963"/>
<path transform="translate(939,958)" d="m0 0 1 2-1 1h1v7l-4-1v-4l-5 1 3-3z" fill="#84909A"/>
<path transform="translate(654,1114)" d="m0 0h2v6l-4 4-2 1v-8z" fill="#9DA2AC"/>
<path transform="translate(956,1025)" d="m0 0h2v18h-2v-14l-2-1z" fill="#6F7D89"/>
<path transform="translate(956,986)" d="m0 0h2v18h-2v-14l-2-1z" fill="#6F7D89"/>
<path transform="translate(927,497)" d="m0 0 2 1v2 6l-3 3h-2v-7l-1-3z" fill="#89949E"/>
<path transform="translate(785,1087)" d="m0 0v3l-1 10 3-1 2-2v4l-5 3h-2v-15z" fill="#375963"/>
<path transform="translate(1294,1068)" d="m0 0 10 5 1 5-5-2-7-7z" fill="#E9E6E8"/>
<path transform="translate(929,1039)" d="m0 0h2v7l5-1-1 2-9 1v-7h2z" fill="#9DA2AC"/>
<path transform="translate(1314,760)" d="m0 0 1 4 2 1-2 4-5-1-2-2z" fill="#F8F5F7"/>
<path transform="translate(937,578)" d="m0 0 2 1-1 7h-1v-5l-2 2-1 5 6-2-1 3-6 2-1-3 1-7z" fill="#9399A4"/>
<path transform="translate(928,269)" d="m0 0 3 1v7h-1v-5l-1 1v5h-3v-6h-3v-2z" fill="#A0A3AE"/>
<path transform="translate(858,1087)" d="m0 0 3 1v7l-3 3h-1v-10z" fill="#CDCBD3"/>
<path transform="translate(928,1012)" d="m0 0 2 2-1 4-1-1-1 5-3 1 1-3-2-7z" fill="#A4A7B1"/>
<path transform="translate(929,593)" d="m0 0h2v6l-1 2h-2l-1 1-2 4-2-1 2-7h3l-1-3z" fill="#E4E4E6"/>
<path transform="translate(929,487)" d="m0 0h2v7l5-1-3 3-4 1 1-3h-2l-2-5z" fill="#8B929E"/>
<path transform="translate(1422,575)" d="m0 0 2 1-1 2 5 2-3 3-5 2 1-9z" fill="#E0D6E1"/>
<path transform="translate(1421,548)" d="m0 0h1v10l-3 3-7 4-4-1 12-7z" fill="#304E57"/>
<path transform="translate(846,1092)" d="m0 0h2v3l-3 1v11l-3 2 1-12h-2l-1 2 1-4z" fill="#375963"/>
<path transform="translate(939 1e3)" d="m0 0 1 3v7l-4 2v-7l2-1-4-1z" fill="#878F9B"/>
<path transform="translate(195,895)" d="m0 0m-1 1 1 2h2v2l-8 4h-2l2-4z" fill="#B1AFBB"/>
<path transform="translate(960,873)" d="m0 0h2v8l-4 1-1-5 1-3z" fill="#8F9EA6"/>
<path transform="translate(1326,802)" d="m0 0 3 1-7 5h-8l-2-4 7 2 6-3z" fill="#CECDD1"/>
<path transform="translate(1483,782)" d="m0 0 3 1-5 4-7 2-5-3-1-3h2l3 3 6-1z" fill="#D0CFD3"/>
<path transform="translate(1338,817)" d="m0 0 1 2 3 1-2 4-4-1-2-1 2-4z" fill="#FBFBFB"/>
<path transform="translate(1280,795)" d="m0 0h2v6l-5 3v-7z" fill="#375963"/>
<path transform="translate(1436,684)" d="m0 0 5 1 2 1v2h-2v2l-5-1-1-4z" fill="#FAF9FA"/>
<path transform="translate(1495,612)" d="m0 0 3 3v12l-3 2z" fill="#1F353D"/>
<path transform="translate(1135,1172)" d="m0 0h2v11l-4-4v-5z" fill="#2A454E"/>
<path transform="translate(1278,807)" d="m0 0h1v7l-5 2v-6z" fill="#375963"/>
<path transform="translate(957,649)" d="m0 0h1l1 5 3-1v7l-3 1-2-4z" fill="#DFDEE1"/>
<path transform="translate(654,646)" d="m0 0 2 1v5l-3 1-1 2h-2v-7z" fill="#9B9FAA"/>
<path transform="translate(206,1529)" d="m0 0h1l1 15-3-1-1-4-1-2 3-3-3-1 2-1-1-2z" fill="#E3E3E3"/>
<path transform="translate(1567,1526)" d="m0 0 8 2-1 5h-2v-2h-2v-2l-4 2z" fill="#E1DBE2"/>
<path transform="translate(1518,1211)" d="m0 0h4 5l8 3v1l-15-1-3-2z" fill="#E5DCE4"/>
<path transform="translate(654,1198)" d="m0 0h2l-1 7-5 2v-7z" fill="#979CA7"/>
<path transform="translate(929,964)" d="m0 0 5 1-1 7-2-3v5h-2v-8l-2-1z" fill="#8C969F"/>
<path transform="translate(1284,834)" d="m0 0 2 1-1 5-4 2-1-4z" fill="#2E4752"/>
<path transform="translate(937,822)" d="m0 0 2 1-1 7h-2v-2h-2l-1 4v-7z" fill="#ABB0B7"/>
<path transform="translate(1468,742)" d="m0 0 5 2v3l-5 1-2-1 1-4z" fill="#FBFBFB"/>
<path transform="translate(1416,585)" d="m0 0 3 1-4 3-6 3-7 3v-2z" fill="#DED3DF"/>
<path transform="translate(856,1698)" d="m0 0h3l2 7-9-3-1-2 5 1z" fill="#E6D5E4"/>
<path transform="translate(497,1279)" d="m0 0h1l1 14 1 2h-3l-1 3v-11z" fill="#CFCED2"/>
<path transform="translate(653,830)" d="m0 0 2 1-1 2 2 1h-2l1 6-5 1 1-6 2-2-3-1z" fill="#788591"/>
<path transform="translate(1283,774)" d="m0 0h3l-1 6-5 1 1-5z" fill="#2E4752"/>
<path transform="translate(938,1043)" d="m0 0 2 1v8l-4 2v-7l2-2-2-1z" fill="#878E9A"/>
<path transform="translate(828,1017)" d="m0 0h4l-1 6-4 1v-6z" fill="#D5D4DA"/>
<path transform="translate(930,882)" d="m0 0h1v7h-3v2h-2l-1-6 4-1z" fill="#8A929D"/>
<path transform="translate(924,751)" d="m0 0 4 1v7l-4 2v-7z" fill="#9EA3AD"/>
<path transform="translate(1434,686)" d="m0 0 6 4-2 3-7-2z" fill="#E6E4E6"/>
<path transform="translate(936,667)" d="m0 0 2 1h2v7l-4 2v-8l-2-1z" fill="#8E939F"/>
<path transform="translate(936,263)" d="m0 0h2v9l-3 1-1-5 2-2-3-1z" fill="#838F99"/>
<path transform="translate(992,1601)" d="m0 0 3 1-3 2h5l-2 1v2l-9-1v-2l3-1z" fill="#E4D6E3"/>
<path transform="translate(1452,1159)" d="m0 0 2 1-2 3h-2v2l-3-1h-1l-4-3z" fill="#D4D3D6"/>
<path transform="translate(929 1e3)" d="m0 0h2v7h-3v2h-2v-7l1 3h2l-1-4z" fill="#959FA7"/>
<path transform="translate(939,885)" d="m0 0 1 3v7l-4 2v-7l2-4z" fill="#9295A2"/>
<path transform="translate(938,743)" d="m0 0h2v10l-4 1v-7h2z" fill="#8E929F"/>
<path transform="translate(1275,692)" d="m0 0 1 2-3 6-5-2v-2z" fill="#E0D5E1"/>
<path transform="translate(925,966)" d="m0 0h2l1 9h-4l1-6h-2v-2z" fill="#8B949F"/>
<path transform="translate(1255,962)" d="m0 0 5 2v2h2v2l2 1-3 1-6-5z" fill="#EBE9EB"/>
<path transform="translate(931,257)" d="m0 0 2 1v5l-2 2h-3l1-5z" fill="#ADADB7"/>
<path transform="translate(763,1140)" d="m0 0 1 4-3 8-1-3v-4l-2 2v-4z" fill="#375963"/>
<path transform="translate(647,1126)" d="m0 0h6v4l2 1h-2l-1 3-2-4v-2h-3z" fill="#C1C3C9"/>
<path transform="translate(1283,1064)" d="m0 0 6 1-1 2 3 4-6-1-3-5z" fill="#E6E5E6"/>
<path transform="translate(1279,847)" d="m0 0h9v4l-6-1z" fill="#2C4A53"/>
<path transform="translate(649,431)" d="m0 0h4v5l-3 3-2-1v-4z" fill="#A1A4AE"/>
<path transform="translate(785,1690)" d="m0 0h6l-1 3 2 2h-8z" fill="#EFEEEE"/>
<path transform="translate(654,1041)" d="m0 0 2 1v5h-4l-2-1 1-3z" fill="#9198A3"/>
<path transform="translate(936,888)" d="m0 0h2l-1 4-2 6h-1v-6l-2-1z" fill="#EBEBEC"/>
<path transform="translate(933,749)" d="m0 0h1v6h-3v3h-2v-7z" fill="#9B9CA9"/>
<path transform="translate(657,653)" d="m0 0 1 2-2 1v8h-2v-5h-2v-3z" fill="#9CA3AC"/>
<path transform="translate(940,589)" d="m0 0h1v7l-4 1v-7z" fill="#858C99"/>
</svg>
