<svg width="24" height="24" viewBox="0 0 24 24" fill="none" xmlns="http://www.w3.org/2000/svg">
<path d="M11.6783 15.5776C11.0779 15.5776 10.5918 16.078 10.5918 16.6785C10.5918 17.2647 11.0636 17.7794 11.6783 17.7794C12.2931 17.7794 12.7792 17.2647 12.7792 16.6785C12.7792 16.078 12.2789 15.5776 11.6783 15.5776Z" fill="#1D2939"/>
<path d="M11.8643 7.24219C9.93424 7.24219 9.04785 8.38591 9.04785 9.15795C9.04785 9.71555 9.51961 9.97288 9.90565 9.97288C10.6776 9.97288 10.3631 8.87203 11.8214 8.87203C12.5363 8.87203 13.1082 9.18657 13.1082 9.84422C13.1082 10.6163 12.3075 11.0595 11.8357 11.4598C11.4211 11.8172 10.8778 12.4034 10.8778 13.6329C10.8778 14.3763 11.078 14.5908 11.6642 14.5908C12.3647 14.5908 12.5076 14.2763 12.5076 14.0046C12.5076 13.2612 12.522 12.8323 13.3083 12.2175C13.6943 11.9173 14.9096 10.9451 14.9096 9.6012C14.9096 8.25728 13.6943 7.24219 11.8643 7.24219Z" fill="#1D2939"/>
<path d="M12 1.5C6.19695 1.5 1.5 6.19617 1.5 12V21.6797C1.5 22.1327 1.86725 22.5 2.32031 22.5H12C17.803 22.5 22.5 17.8038 22.5 12C22.5 6.19695 17.8038 1.5 12 1.5ZM12 20.8594H3.14062V12C3.14062 7.10368 7.10302 3.14062 12 3.14062C16.8963 3.14062 20.8594 7.10302 20.8594 12C20.8594 16.8963 16.897 20.8594 12 20.8594Z" fill="#1D2939"/>
</svg>
