<svg width="24" height="24" viewBox="0 0 24 24" fill="none" xmlns="http://www.w3.org/2000/svg">
<mask id="mask0_10557_7807" style="mask-type:luminance" maskUnits="userSpaceOnUse" x="2" y="2" width="20" height="20">
<path d="M22 2H2V22H22V2Z" fill="white"/>
<path d="M12.9766 12C12.9766 12.5393 12.5393 12.9766 12 12.9766C11.4607 12.9766 11.0234 12.5393 11.0234 12C11.0234 11.4607 11.4607 11.0234 12 11.0234C12.5393 11.0234 12.9766 11.4607 12.9766 12Z" fill="white"/>
<path d="M16.8828 12C16.8828 12.5393 16.4456 12.9766 15.9062 12.9766C15.3669 12.9766 14.9297 12.5393 14.9297 12C14.9297 11.4607 15.3669 11.0234 15.9062 11.0234C16.4456 11.0234 16.8828 11.4607 16.8828 12Z" fill="white"/>
<path d="M9.07031 12C9.07031 12.5393 8.63309 12.9766 8.09375 12.9766C7.55441 12.9766 7.11719 12.5393 7.11719 12C7.11719 11.4607 7.55441 11.0234 8.09375 11.0234C8.63309 11.0234 9.07031 11.4607 9.07031 12Z" fill="white"/>
</mask>
<g mask="url(#mask0_10557_7807)">
<mask id="mask1_10557_7807" style="mask-type:luminance" maskUnits="userSpaceOnUse" x="2" y="2" width="20" height="20">
<path d="M2 2H22V22H2V2Z" fill="white"/>
</mask>
<g mask="url(#mask1_10557_7807)">
<path d="M12 2.78125C6.90863 2.78125 2.78125 6.90863 2.78125 12C2.78125 13.7924 3.29332 15.4649 4.17836 16.8804L2.78125 21.2188L7.11965 19.8216C8.53508 20.7067 10.2076 21.2188 12 21.2188C17.0914 21.2188 21.2187 17.0914 21.2187 12C21.2187 6.90863 17.0914 2.78125 12 2.78125Z" stroke="#1D2939" stroke-width="1.5625" stroke-miterlimit="10" stroke-linecap="round" stroke-linejoin="round"/>
<path d="M12.9766 12C12.9766 12.5393 12.5393 12.9766 12 12.9766C11.4607 12.9766 11.0234 12.5393 11.0234 12C11.0234 11.4607 11.4607 11.0234 12 11.0234C12.5393 11.0234 12.9766 11.4607 12.9766 12Z" fill="#1D2939"/>
<path d="M16.8828 12C16.8828 12.5393 16.4456 12.9766 15.9062 12.9766C15.3669 12.9766 14.9297 12.5393 14.9297 12C14.9297 11.4607 15.3669 11.0234 15.9062 11.0234C16.4456 11.0234 16.8828 11.4607 16.8828 12Z" fill="#1D2939"/>
<path d="M9.07031 12C9.07031 12.5393 8.63309 12.9766 8.09375 12.9766C7.55441 12.9766 7.11719 12.5393 7.11719 12C7.11719 11.4607 7.55441 11.0234 8.09375 11.0234C8.63309 11.0234 9.07031 11.4607 9.07031 12Z" fill="#1D2939"/>
</g>
</g>
</svg>
