<svg width="25" height="24" viewBox="0 0 25 24" fill="none" xmlns="http://www.w3.org/2000/svg">
<path d="M19.367 22H5.96699C4.16699 22 2.66699 20.48 2.66699 18.66V11.36C2.66699 10.44 3.06699 9.54 3.76699 8.92L10.467 2.84C11.767 1.72 13.567 1.72 14.867 2.84L21.567 8.92C22.267 9.52 22.667 10.44 22.667 11.36V18.66C22.567 20.58 21.167 22 19.367 22ZM12.667 4.06C12.367 4.06 12.067 4.16 11.767 4.36L5.06699 10.44C4.76699 10.64 4.66699 11.04 4.66699 11.46V18.76C4.66699 19.46 5.26699 20.08 5.96699 20.08H19.267C19.967 20.08 20.567 19.48 20.567 18.76V11.46C20.567 11.06 20.367 10.76 20.167 10.44L13.467 4.36C13.267 4.16 12.967 4.06 12.667 4.06Z" fill="#1D2939"/>
</svg>
