<svg width="22" height="21" viewBox="0 0 22 21" fill="none" xmlns="http://www.w3.org/2000/svg">
<path d="M11 19.4316L10.8999 19.2816C10.2053 18.2396 9.85798 17.7186 9.3991 17.3415C8.99286 17.0076 8.52476 16.757 8.02161 16.6042C7.45325 16.4316 6.82711 16.4316 5.57482 16.4316H4.2C3.07989 16.4316 2.51984 16.4316 2.09202 16.2137C1.71569 16.0219 1.40973 15.7159 1.21799 15.3396C1 14.9118 1 14.3517 1 13.2316V4.63164C1 3.51154 1 2.95148 1.21799 2.52366C1.40973 2.14734 1.71569 1.84137 2.09202 1.64963C2.51984 1.43164 3.07989 1.43164 4.2 1.43164H4.6C6.84021 1.43164 7.96031 1.43164 8.81596 1.86761C9.56861 2.25111 10.1805 2.86303 10.564 3.61568C11 4.47133 11 5.59143 11 7.83164M11 19.4316V7.83164M11 19.4316L11.1001 19.2816C11.7947 18.2396 12.142 17.7186 12.6009 17.3415C13.0071 17.0076 13.4752 16.757 13.9784 16.6042C14.5467 16.4316 15.1729 16.4316 16.4252 16.4316H17.8C18.9201 16.4316 19.4802 16.4316 19.908 16.2137C20.2843 16.0219 20.5903 15.7159 20.782 15.3396C21 14.9118 21 14.3517 21 13.2316V4.63164C21 3.51154 21 2.95148 20.782 2.52366C20.5903 2.14734 20.2843 1.84137 19.908 1.64963C19.4802 1.43164 18.9201 1.43164 17.8 1.43164H17.4C15.1598 1.43164 14.0397 1.43164 13.184 1.86761C12.4314 2.25111 11.8195 2.86303 11.436 3.61568C11 4.47133 11 5.59143 11 7.83164" stroke="#009900" stroke-width="1.5" stroke-linecap="round" stroke-linejoin="round"/>
</svg>
