<svg width="64" height="78" viewBox="0 0 64 78" fill="none" xmlns="http://www.w3.org/2000/svg">
<path fill-rule="evenodd" clip-rule="evenodd" d="M3.94932 32.277H13.7804C15.4093 32.277 16.7297 33.5974 16.7297 35.2263V64.7196C16.7297 66.3484 15.4093 67.6689 13.7804 67.6689H3.94932C2.32044 67.6689 1 66.3484 1 64.7196V35.2263C1 33.5974 2.32044 32.277 3.94932 32.277ZM45.7608 22.5975C46.9227 20.4185 48.1892 18.0431 48.1892 14.7595C48.1892 5.73311 42.2905 4.75 39.3412 4.75C36.8781 4.75 35.7337 9.5121 35.1828 11.8047L35.1713 11.8522C34.5317 14.5147 33.8701 17.2679 32.0508 19.0906C30.1695 20.9751 28.7098 23.1033 27.1822 25.3307C25.4699 27.8273 23.6721 30.4484 21.0994 32.9906C20.8197 33.2671 20.6621 33.6445 20.6621 34.0378V60.3076C20.6621 61.1114 21.3065 61.7673 22.1101 61.782C24.0555 61.8178 26.6194 62.8977 28.5803 63.7701C32.4825 65.5062 37.339 67.6667 43.2729 67.6688L43.6225 67.6689C48.8793 67.6689 55.0957 67.6181 57.6039 64.0145C58.6352 62.5329 58.8876 60.6924 58.3594 58.5298C60.3641 56.4342 61.4394 52.5252 60.3726 49.343C62.5286 46.4635 62.7251 42.445 61.5164 39.5772L61.5299 39.5637C62.9914 38.0954 63.9291 35.7223 63.9188 33.5179C63.8996 29.788 60.7045 26.3784 56.6004 26.3784H44.0998C44.4321 25.0896 45.0784 23.8774 45.7608 22.5975Z" fill="#98A2B3"/>
</svg>
