<svg width="63" height="64" viewBox="0 0 63 64" fill="none" xmlns="http://www.w3.org/2000/svg">
<path fill-rule="evenodd" clip-rule="evenodd" d="M2.94932 28.277H12.7804C14.4093 28.277 15.7297 29.5974 15.7297 31.2263V60.7196C15.7297 62.3484 14.4093 63.6689 12.7804 63.6689H2.94932C1.32044 63.6689 0 62.3484 0 60.7196V31.2263C0 29.5974 1.32044 28.277 2.94932 28.277ZM44.7608 18.5975C45.9227 16.4185 47.1892 14.0431 47.1892 10.7595C47.1892 1.73311 41.2905 0.75 38.3412 0.75C35.8781 0.75 34.7337 5.5121 34.1828 7.80468L34.1713 7.85221C33.5317 10.5147 32.8701 13.2679 31.0508 15.0906C29.1695 16.9751 27.7098 19.1033 26.1822 21.3307C24.4699 23.8273 22.6721 26.4484 20.0994 28.9906C19.8197 29.2671 19.6621 29.6445 19.6621 30.0378V56.3076C19.6621 57.1114 20.3065 57.7673 21.1101 57.782C23.0555 57.8178 25.6194 58.8977 27.5803 59.7701C31.4825 61.5062 36.339 63.6667 42.2729 63.6688L42.6225 63.6689C47.8793 63.6689 54.0957 63.6181 56.6039 60.0145C57.6352 58.5329 57.8876 56.6924 57.3594 54.5298C59.3641 52.4342 60.4394 48.5252 59.3726 45.343C61.5286 42.4635 61.7251 38.445 60.5164 35.5772L60.5299 35.5637C61.9914 34.0954 62.9291 31.7223 62.9188 29.5179C62.8996 25.788 59.7045 22.3784 55.6004 22.3784H43.0998C43.4321 21.0896 44.0784 19.8774 44.7608 18.5975Z" fill="#40F214"/>
</svg>
