<svg width="24" height="24" viewBox="0 0 24 24" fill="none" xmlns="http://www.w3.org/2000/svg">
<path d="M22.5602 6.72023C22.4879 6.6645 22.404 6.62566 22.3147 6.60656C22.2254 6.58746 22.133 6.58857 22.0442 6.60983L19.7426 7.20023C18.893 7.15223 16.1834 6.11063 14.6402 5.44823L14.609 5.43623C12.5594 4.69943 10.7858 4.86503 9.3026 5.91623C7.3298 5.24183 4.8026 6.66503 4.0226 7.15223L1.949 6.61943C1.8604 6.59626 1.76765 6.59376 1.67793 6.61213C1.5882 6.6305 1.5039 6.66925 1.43153 6.72538C1.35917 6.78151 1.30067 6.85352 1.26056 6.93586C1.22045 7.01819 1.1998 7.10864 1.2002 7.20023V15.6002C1.2002 15.7594 1.26342 15.912 1.37594 16.0245C1.48846 16.137 1.64107 16.2002 1.8002 16.2002H3.0746L8.5298 20.501C8.73918 20.7024 8.9942 20.8502 9.27308 20.9316C9.55196 21.0131 9.84641 21.0258 10.1313 20.9688C10.4161 20.9117 10.683 20.7865 10.909 20.6039C11.1349 20.4213 11.3134 20.1868 11.429 19.9202C11.7009 20.076 12.0085 20.1587 12.3218 20.1602C12.6735 20.1604 13.0175 20.0575 13.3114 19.8643C13.6053 19.6711 13.8361 19.396 13.9754 19.073C14.2468 19.23 14.5547 19.3128 14.8682 19.313C15.2195 19.3127 15.563 19.2096 15.8564 19.0164C16.1498 18.8232 16.3803 18.5484 16.5194 18.2258C16.7965 18.3832 17.1104 18.4639 17.429 18.4598C17.7476 18.4557 18.0594 18.3668 18.3323 18.2024C18.6052 18.038 18.8294 17.8039 18.9819 17.5241C19.1345 17.2444 19.2098 16.9291 19.2002 16.6106L20.4842 16.2002H22.2002C22.3593 16.2002 22.5119 16.137 22.6245 16.0245C22.737 15.912 22.8002 15.7594 22.8002 15.6002V7.20023C22.8006 7.10702 22.7791 7.01502 22.7374 6.93164C22.6957 6.84827 22.635 6.77585 22.5602 6.72023ZM2.4002 7.96823L3.473 8.24423L3.0434 12.2402L2.7458 15.0002H2.4002V7.96823ZM17.837 17.0786C17.7229 17.1886 17.5707 17.2501 17.4122 17.2501C17.2537 17.2501 17.1015 17.1886 16.9874 17.0786L16.1402 16.2314L12.7466 12.8354C12.6326 12.7329 12.4836 12.6779 12.3304 12.6818C12.1771 12.6856 12.0311 12.748 11.9224 12.8561C11.8136 12.9642 11.7504 13.1099 11.7457 13.2631C11.741 13.4164 11.7951 13.5656 11.897 13.6802L15.293 17.081C15.4021 17.1943 15.4624 17.346 15.4608 17.5033C15.4592 17.6606 15.3959 17.811 15.2845 17.9221C15.1731 18.0332 15.0225 18.0961 14.8652 18.0973C14.7079 18.0984 14.5564 18.0377 14.4434 17.9282L13.5938 17.0786L11.0402 14.5322C10.9844 14.4764 10.9182 14.4322 10.8453 14.402C10.7724 14.3718 10.6943 14.3563 10.6154 14.3563C10.5365 14.3563 10.4584 14.3718 10.3855 14.402C10.3126 14.4322 10.2464 14.4764 10.1906 14.5322C10.1348 14.588 10.0906 14.6542 10.0604 14.7271C10.0302 14.8 10.0146 14.8781 10.0146 14.957C10.0146 15.0359 10.0302 15.114 10.0604 15.1869C10.0906 15.2598 10.1348 15.326 10.1906 15.3818L12.7466 17.9282C12.8038 17.9837 12.8494 18.0499 12.8808 18.1232C12.9121 18.1964 12.9285 18.2752 12.9291 18.3548C12.9297 18.4345 12.9144 18.5135 12.8841 18.5872C12.8539 18.6609 12.8092 18.7278 12.7528 18.784C12.6964 18.8403 12.6293 18.8848 12.5556 18.9148C12.4818 18.9449 12.4028 18.96 12.3231 18.9592C12.2434 18.9584 12.1647 18.9417 12.0916 18.9101C12.0184 18.8786 11.9523 18.8328 11.897 18.7754L9.3602 16.2314C9.30467 16.1756 9.23866 16.1313 9.16597 16.1011C9.09327 16.0709 9.01532 16.0554 8.9366 16.0554C8.85788 16.0554 8.77993 16.0709 8.70723 16.1011C8.63454 16.1313 8.56853 16.1756 8.513 16.2314C8.45707 16.2866 8.41275 16.3523 8.38266 16.4249C8.35256 16.4974 8.33731 16.5753 8.3378 16.6538C8.33753 16.7327 8.35287 16.8108 8.38294 16.8837C8.41301 16.9566 8.45721 17.0229 8.513 17.0786L10.2098 18.7754C10.3221 18.8883 10.3851 19.041 10.3851 19.2002C10.3851 19.3594 10.3221 19.5121 10.2098 19.625C10.0952 19.7339 9.9431 19.7946 9.785 19.7946C9.6269 19.7946 9.47483 19.7339 9.3602 19.625C9.34376 19.6078 9.32612 19.5918 9.3074 19.577L3.9146 15.3338L4.517 9.76823L4.6922 8.14583C5.4554 7.66583 6.9458 6.92423 8.1818 6.94583C7.81448 7.36995 7.48596 7.82618 7.2002 8.30903C6.9355 8.76007 6.85122 9.29456 6.9643 9.80517C7.07737 10.3158 7.37942 10.7647 7.8098 11.0618C8.6594 11.6426 10.2098 12.1826 12.1298 10.5242L17.837 16.229C17.9487 16.3422 18.0113 16.4948 18.0113 16.6538C18.0113 16.8128 17.9487 16.9654 17.837 17.0786ZM18.7802 15.4874C18.751 15.4505 18.7197 15.4153 18.6866 15.3818L12.9746 9.66983C13.2146 9.39623 13.4546 9.09143 13.6946 8.74583C13.7492 8.68253 13.7899 8.60854 13.8142 8.52859C13.8385 8.44864 13.8458 8.3645 13.8357 8.28155C13.8256 8.1986 13.7983 8.11868 13.7555 8.04691C13.7127 7.97513 13.6554 7.91308 13.5873 7.86473C13.5191 7.81639 13.4416 7.78281 13.3597 7.76615C13.2778 7.7495 13.1934 7.75013 13.1118 7.768C13.0301 7.78588 12.9531 7.82061 12.8857 7.86997C12.8183 7.91932 12.7619 7.98222 12.7202 8.05463C11.6546 9.56423 10.061 11.1386 8.4962 10.0706C8.31852 9.94408 8.19512 9.75517 8.15063 9.54162C8.10614 9.32807 8.14384 9.1056 8.2562 8.91863C8.64515 8.22374 9.15376 7.60301 9.7586 7.08503C9.77805 7.07115 9.7965 7.05591 9.8138 7.03943C11.0138 6.07943 12.4538 5.93303 14.201 6.55943C14.6546 6.75143 17.6762 8.03063 19.2602 8.33543L19.7882 15.173L18.7802 15.4874ZM21.6002 15.0002H20.957L20.4362 8.25863L21.6002 7.96823V15.0002Z" fill="#1D2939"/>
</svg>
