<svg width="24" height="25" viewBox="0 0 24 25" fill="none" xmlns="http://www.w3.org/2000/svg">
<path d="M17.5 23.5582C17.4083 23.5582 17.3167 23.5399 17.2305 23.5032C17.0178 23.4125 12 21.2271 12 16.7327V13.0495C12 12.7553 12.187 12.494 12.4666 12.3987L17.2791 10.7615C17.4221 10.713 17.5779 10.713 17.7209 10.7615L22.5334 12.3987C22.813 12.494 23 12.7553 23 13.0495V16.7327C23 21.2271 17.9822 23.4125 17.7695 23.5041C17.6833 23.5399 17.5917 23.5582 17.5 23.5582ZM13.375 13.5418V16.7318C13.375 19.787 16.543 21.624 17.5 22.108C18.457 21.624 21.625 19.787 21.625 16.7318V13.5418L17.5 12.1384L13.375 13.5418Z" fill="black"/>
<path d="M17.2706 19.4332C17.0891 19.4332 16.9131 19.3617 16.7848 19.2315L14.9514 17.3982C14.6829 17.1296 14.6829 16.6942 14.9514 16.4256C15.22 16.157 15.6554 16.157 15.924 16.4256L17.1973 17.6989L19.4706 14.6665C19.6961 14.3631 20.1288 14.3008 20.4331 14.53C20.7365 14.7573 20.7979 15.1881 20.5697 15.4925L17.8197 19.1591C17.7005 19.3186 17.5181 19.4176 17.3183 19.4323C17.3027 19.4323 17.2871 19.4332 17.2706 19.4332Z" fill="black"/>
<path d="M10.7075 20.8081H3.52083C2.13025 20.8081 1 19.6779 1 18.2873V4.07894C1 2.68836 2.13025 1.55811 3.52083 1.55811H14.0625C15.4531 1.55811 16.5833 2.68836 16.5833 4.07894V9.05644C16.5833 9.43594 16.2753 9.74394 15.8958 9.74394C15.5163 9.74394 15.2083 9.43594 15.2083 9.05644V4.07894C15.2083 3.44736 14.6941 2.93311 14.0625 2.93311H3.52083C2.88925 2.93311 2.375 3.44736 2.375 4.07894V18.2873C2.375 18.9189 2.88925 19.4331 3.52083 19.4331H10.7075C11.087 19.4331 11.395 19.7411 11.395 20.1206C11.395 20.5001 11.087 20.8081 10.7075 20.8081Z" fill="black"/>
<path d="M13.1458 10.2666H4.4375C4.058 10.2666 3.75 9.9586 3.75 9.5791C3.75 9.1996 4.058 8.8916 4.4375 8.8916H13.1458C13.5253 8.8916 13.8333 9.1996 13.8333 9.5791C13.8333 9.9586 13.5253 10.2666 13.1458 10.2666Z" fill="black"/>
<path d="M9.47917 13.9331H4.4375C4.058 13.9331 3.75 13.6251 3.75 13.2456C3.75 12.8661 4.058 12.5581 4.4375 12.5581H9.47917C9.85867 12.5581 10.1667 12.8661 10.1667 13.2456C10.1667 13.6251 9.85867 13.9331 9.47917 13.9331Z" fill="black"/>
<path d="M8.5625 6.59961H4.4375C4.058 6.59961 3.75 6.29161 3.75 5.91211C3.75 5.53261 4.058 5.22461 4.4375 5.22461H8.5625C8.942 5.22461 9.25 5.53261 9.25 5.91211C9.25 6.29161 8.942 6.59961 8.5625 6.59961Z" fill="black"/>
</svg>
