<svg width="128" height="128" viewBox="0 0 128 128" fill="none" xmlns="http://www.w3.org/2000/svg">
<path d="M104.81 63.8998C104.17 60.7098 102.81 58.0398 100.53 57.3198L101.41 56.9598C102.6 53.9598 103.47 46.6098 102.12 42.9598C100.69 39.0898 94.6603 36.6898 91.5403 41.9598C88.4203 47.2298 49.2703 44.8798 47.7603 40.9998C46.2503 37.1198 42.3803 32.7998 37.9303 33.3598C33.4803 33.9198 33.2503 35.4198 33.3803 40.1298C33.4803 44.1298 34.0103 48.8998 31.8703 53.3098C29.7303 57.7198 22.7503 66.3098 19.2103 76.1398C16.5703 83.4698 18.2703 89.7298 17.0403 93.1398C15.5603 97.2798 13.8203 98.3498 13.8203 98.3498C13.8203 98.3498 25.9503 101.76 34.0903 106.81C40.6393 111.087 46.554 116.264 51.6603 122.19C51.6603 122.19 52.0903 117.52 71.2603 111.19C85.9003 106.37 89.2103 94.9898 91.5603 93.1898C93.9103 91.3898 100.16 83.1898 102.04 78.4298C104.46 72.3298 105.45 67.0898 104.81 63.8998Z" fill="#FFE6D5"/>
<path d="M74.7796 68.0601L74.0596 68.3601C74.3073 68.2797 74.5481 68.1793 74.7796 68.0601Z" fill="#FFE6D5"/>
<path d="M34.2097 34.1702C33.4541 32.3008 32.8847 30.3614 32.5097 28.3802C30.8197 19.3802 35.2697 7.66024 48.3097 7.02024C58.6297 6.51024 64.9997 16.5602 64.9997 16.5602C64.9997 16.5602 71.3997 6.56024 81.7197 7.02024C94.7197 7.66024 99.2197 19.3902 97.5297 28.3802C95.8397 37.3702 89.6797 46.0002 81.6097 52.0002C76.3058 55.8675 70.7575 59.3882 64.9997 62.5402C60.3924 60.0055 55.9166 57.2386 51.5897 54.2502" fill="#FDA29B"/>
<path d="M51.0003 80.5498C51.0003 80.5498 51.9403 77.3998 49.2803 69.4398C48.2103 66.2298 51.5503 59.9098 51.4103 55.1798C51.2703 50.4498 49.2703 44.8798 47.7603 40.9998C46.2503 37.1198 42.3803 32.7998 37.9303 33.3598C33.4803 33.9198 33.2503 35.4198 33.3803 40.1298C33.4803 44.1298 34.0103 48.8998 31.8703 53.3098C29.7303 57.7198 22.7503 66.3098 19.2103 76.1398C16.5703 83.4698 18.2703 89.7298 17.0403 93.1398C15.5603 97.2798 13.8203 98.3498 13.8203 98.3498C13.8203 98.3498 25.9503 101.76 34.0903 106.81C40.6393 111.087 46.554 116.264 51.6603 122.19C51.6603 122.19 52.0903 117.52 71.2603 111.19C85.9003 106.37 89.2103 94.9898 91.5603 93.1898C93.9103 91.3898 100.16 83.1898 102.04 78.4298C104.46 72.3098 105.45 67.0698 104.81 63.8798C104.08 60.2098 102.33 57.2198 99.4603 57.1098C96.3103 56.9998 94.8803 59.5598 93.7803 63.1798C92.1203 68.6198 88.1503 75.0598 83.0003 77.7198" fill="#FFE6D5"/>
<path d="M106.77 63.5101C106.405 61.0175 105.285 58.6967 103.56 56.8601C104.72 53.1901 105.44 46.1701 104 42.2301C103.431 40.7882 102.478 39.5299 101.244 38.592C100.01 37.6541 98.542 37.0723 97.0005 36.9101H96.8005C98.042 34.3152 98.9493 31.5733 99.5005 28.7501C101.7 17.1501 95.0005 5.66005 81.8505 5.00005C73.6205 4.59005 67.7505 10.0001 65.0305 13.2401C62.3205 10.0601 56.4405 4.62005 48.2205 5.00005C35.2205 5.63005 28.3505 17.0001 30.5405 28.7301C30.9096 30.643 31.445 32.5202 32.1405 34.3401C31.3705 35.8101 31.3205 37.7701 31.3805 40.1901C31.4905 44.1901 31.9505 48.5801 30.0705 52.4501C28.0705 56.6401 20.9405 65.4501 17.3205 75.4501C14.6605 82.86 16.1405 89.7101 15.1605 92.4501C14.0105 95.66 12.7605 96.6301 12.7705 96.6301C12.4364 96.8355 12.1702 97.1347 12.0048 97.4903C11.8395 97.8459 11.7823 98.2422 11.8405 98.6301C11.894 99.0153 12.0588 99.3766 12.3146 99.6697C12.5703 99.9627 12.906 100.175 13.2805 100.28C13.4005 100.28 25.2805 103.68 33.0305 108.52C39.3978 112.7 45.15 117.749 50.1205 123.52C50.36 123.811 50.6767 124.027 51.0341 124.146C51.3915 124.264 51.7751 124.28 52.1407 124.19C52.5063 124.1 52.8392 123.909 53.101 123.638C53.3627 123.368 53.5428 123.028 53.6205 122.66C53.7905 122.3 55.9905 118.39 71.8905 113.16C87.0305 108.16 91.1205 96.1601 92.7905 94.8001C95.4205 92.7401 101.91 84.26 103.9 79.2001C106.47 72.6701 107.49 67.1001 106.77 63.5101ZM48.4105 9.00005C57.4105 8.55005 63.2905 17.5301 63.3505 17.6201C63.5312 17.9017 63.7797 18.1335 64.0732 18.2942C64.3667 18.455 64.6958 18.5395 65.0305 18.5401C65.3668 18.5412 65.698 18.4575 65.9934 18.2966C66.2888 18.1358 66.5388 17.9031 66.7205 17.6201C66.7805 17.5301 72.6405 8.62005 81.6605 9.00005C92.3505 9.52005 97.3005 18.8901 95.5905 28.0001C93.9105 37.0001 87.6805 45.0001 80.4205 50.3601C75.4828 53.9651 70.3336 57.271 65.0005 60.2601C63.0005 59.1601 58.2605 56.4101 53.1605 52.9101C52.4892 48.5813 51.3042 44.3481 49.6305 40.3001C47.7005 35.3701 42.9905 30.7301 37.6305 31.4001C36.8895 31.4905 36.1571 31.641 35.4405 31.8501C35.0189 30.5981 34.6848 29.3183 34.4405 28.0201C32.7805 19.0001 37.5905 9.55005 48.4105 9.00005ZM100.18 77.7001C98.3605 82.33 92.3005 90.0701 90.3305 91.6101C87.3305 93.9301 84.7105 104.69 70.6405 109.32C58.9405 113.17 53.7405 116.57 51.4505 118.94C46.6295 113.655 41.1477 109.014 35.1405 105.13C29.2405 101.46 21.4605 98.6801 17.2905 97.3301C17.9542 96.2184 18.5037 95.0424 18.9305 93.8201C20.3505 89.8201 18.5605 83.8801 21.0905 76.8201C24.5805 67.1101 31.3905 58.8801 33.6705 54.1901C35.9505 49.5001 35.5105 44.8101 35.3805 40.0801C35.2605 35.7101 35.3205 35.7001 38.1805 35.3401C41.6305 34.9101 44.7605 38.8201 45.9005 41.7301C47.3305 45.3901 49.2505 50.7301 49.3805 55.2101C49.5105 59.6901 46.0205 66.0501 47.3805 70.0401C49.6505 77.0001 49.0705 79.8801 49.0005 80.0001C48.9282 80.2528 48.9065 80.5174 48.9365 80.7786C48.9665 81.0398 49.0477 81.2925 49.1754 81.5223C49.3031 81.7522 49.4748 81.9546 49.6807 82.118C49.8866 82.2815 50.1227 82.4028 50.3755 82.4751C50.6283 82.5473 50.8928 82.569 51.154 82.539C51.4152 82.509 51.6679 82.4278 51.8977 82.3001C52.1276 82.1725 52.33 82.0008 52.4935 81.7949C52.6569 81.5889 52.7782 81.3528 52.8505 81.1001C52.9605 80.7101 53.8505 77.1001 51.1105 68.7701C50.4805 66.9001 52.5705 61.7701 53.1605 57.7101C59.0005 61.5901 63.8605 64.1801 64.0905 64.3001C64.3811 64.4559 64.7057 64.5374 65.0355 64.5374C65.3652 64.5374 65.6898 64.4559 65.9805 64.3001C71.5705 61.3001 80.7205 55.5201 85.5405 51.3901C84.7046 54.0189 83.4775 56.5068 81.9005 58.7701C76.8105 65.3101 73.5205 66.4401 73.5305 66.4401C73.2531 66.4816 72.9876 66.5809 72.7512 66.7317C72.5148 66.8825 72.3127 67.0813 72.1581 67.3152C72.0035 67.5492 71.8998 67.813 71.8537 68.0896C71.8077 68.3662 71.8203 68.6494 71.8908 68.9208C71.9613 69.1922 72.0881 69.4458 72.2629 69.665C72.4378 69.8842 72.6567 70.0643 72.9057 70.1934C73.1546 70.3225 73.4279 70.3978 73.7078 70.4145C73.9877 70.4311 74.268 70.3887 74.5305 70.2901C74.9805 70.1701 79.0405 68.8801 85.0105 61.2301C87.3205 58.2301 88.6905 54.3801 90.0105 50.6201C90.8803 47.688 92.1203 44.8787 93.7005 42.2601C94.0268 41.8014 94.4664 41.4351 94.9763 41.1968C95.4863 40.9584 96.0493 40.8562 96.6105 40.9001C97.3927 40.9935 98.1359 41.2939 98.7635 41.7703C99.391 42.2466 99.8801 42.8817 100.18 43.6101C101.18 46.3301 100.7 52.0401 99.8305 55.1701C95.2605 54.7401 93.1205 58.3101 91.8305 62.6101C90.3405 67.5001 86.7205 73.5201 82.0105 75.9401C81.5545 76.1904 81.214 76.6086 81.0613 77.1059C80.9085 77.6031 80.9556 78.1404 81.1924 78.6035C81.4291 79.0667 81.8371 79.4194 82.3296 79.5868C82.8221 79.7541 83.3605 79.723 83.8305 79.5001C90.0005 76.34 94.0805 69.0601 95.6905 63.7801C97.0205 59.4101 98.2605 59.1001 99.3905 59.1301C101.66 59.2201 102.61 63.1301 102.85 64.2901C103.4 67.0601 102.41 72.0801 100.18 77.7201V77.7001Z" fill="#404040"/>
<path d="M105.38 33.5602C104.944 33.2589 104.646 32.797 104.55 32.2757C104.454 31.7545 104.569 31.2166 104.87 30.7802C106.027 29.1082 106.647 27.1234 106.647 25.0902C106.647 23.057 106.027 21.0722 104.87 19.4002C104.568 18.9639 104.451 18.4254 104.546 17.9031C104.64 17.3808 104.939 16.9175 105.375 16.6152C105.811 16.3129 106.35 16.1962 106.872 16.2909C107.394 16.3856 107.858 16.6839 108.16 17.1202C109.781 19.4617 110.65 22.2421 110.65 25.0902C110.65 27.9383 109.781 30.7187 108.16 33.0602C107.857 33.4946 107.395 33.7911 106.873 33.8849C106.352 33.9786 105.815 33.8618 105.38 33.5602Z" fill="#404040"/>
<path d="M112.86 37.0002C112.633 36.867 112.435 36.6905 112.277 36.4807C112.118 36.2708 112.003 36.0319 111.937 35.7774C111.871 35.5229 111.856 35.2579 111.892 34.9976C111.929 34.7372 112.017 34.4866 112.15 34.2602C113.782 31.4908 114.643 28.3348 114.643 25.1202C114.643 21.9055 113.782 18.7495 112.15 15.9802C111.932 15.5263 111.894 15.007 112.042 14.5259C112.19 14.0449 112.515 13.6374 112.95 13.385C113.386 13.1325 113.901 13.0535 114.392 13.1639C114.883 13.2742 115.314 13.5657 115.6 13.9802C117.598 17.367 118.653 21.2277 118.653 25.1602C118.653 29.0927 117.598 32.9533 115.6 36.3402C115.323 36.7896 114.879 37.1112 114.366 37.2348C113.853 37.3584 113.311 37.2741 112.86 37.0002Z" fill="#404040"/>
<path d="M22.0008 33.0602C20.3794 30.7187 19.5107 27.9383 19.5107 25.0902C19.5107 22.2421 20.3794 19.4617 22.0008 17.1202C22.3031 16.6839 22.7664 16.3856 23.2887 16.2909C23.811 16.1962 24.3495 16.3129 24.7858 16.6152C25.2221 16.9175 25.5204 17.3808 25.6151 17.9031C25.7098 18.4254 25.5931 18.9639 25.2908 19.4002C24.1339 21.0722 23.5142 23.057 23.5142 25.0902C23.5142 27.1234 24.1339 29.1082 25.2908 30.7802C25.5931 31.2165 25.7098 31.755 25.6151 32.2773C25.5204 32.7996 25.2221 33.2629 24.7858 33.5652C24.3495 33.8675 23.811 33.9842 23.2887 33.8895C22.7664 33.7948 22.3031 33.4965 22.0008 33.0602Z" fill="#404040"/>
<path d="M14.5603 36.27C12.5619 32.8831 11.5078 29.0225 11.5078 25.0899C11.5078 21.1574 12.5619 17.2968 14.5603 13.9099C14.8375 13.4538 15.2845 13.1264 15.803 12.9998C16.0598 12.9371 16.3264 12.9256 16.5876 12.966C16.8488 13.0063 17.0994 13.0977 17.3253 13.2349C17.5512 13.3722 17.7478 13.5526 17.904 13.7658C18.0601 13.979 18.1728 14.2209 18.2355 14.4777C18.2981 14.7344 18.3096 15.001 18.2693 15.2622C18.2289 15.5234 18.1375 15.7741 18.0003 15.9999C16.368 18.7693 15.5071 21.9253 15.5071 25.1399C15.5071 28.3546 16.368 31.5106 18.0003 34.2799C18.218 34.7338 18.2566 35.2532 18.1082 35.7342C17.9599 36.2153 17.6356 36.6227 17.2001 36.8752C16.7646 37.1276 16.2498 37.2066 15.7587 37.0963C15.2675 36.9859 14.836 36.6944 14.5503 36.2799L14.5603 36.27Z" fill="#404040"/>
</svg>
