<svg width="64" height="72" viewBox="0 0 64 72" fill="none" xmlns="http://www.w3.org/2000/svg">
<path fill-rule="evenodd" clip-rule="evenodd" d="M3.49034 40.2229H13.3214C14.9503 40.2229 16.2707 38.9025 16.2707 37.2736V7.78037C16.2707 6.15149 14.9503 4.83105 13.3214 4.83105H3.49034C1.86145 4.83105 0.541016 6.15149 0.541016 7.78037V37.2736C0.541016 38.9025 1.86145 40.2229 3.49034 40.2229ZM45.3019 49.9024C46.4637 52.0814 47.7302 54.4568 47.7302 57.7404C47.7302 66.7668 41.8315 67.7499 38.8822 67.7499C36.4191 67.7499 35.2747 62.9878 34.7238 60.6952L34.7124 60.6477C34.0727 57.9852 33.4111 55.232 31.5919 53.4093C29.7105 51.5248 28.2508 49.3966 26.7232 47.1692C25.0109 44.6727 23.2132 42.0515 20.6404 39.5093C20.3607 39.2328 20.2032 38.8554 20.2032 38.4622V12.1923C20.2032 11.3885 20.8475 10.7326 21.6512 10.7179C23.5965 10.6821 26.1604 9.6022 28.1214 8.72981C32.0236 6.99377 36.88 4.83326 42.8139 4.83117L43.1635 4.83105C48.4203 4.83105 54.6367 4.88181 57.1449 8.48538C58.1762 9.96705 58.4286 11.8075 57.9004 13.9701C59.9051 16.0658 60.9804 19.9747 59.9136 23.1569C62.0697 26.0364 62.2662 30.0549 61.0574 32.9227L61.0709 32.9362C62.5325 34.4045 63.4701 36.7776 63.4598 38.982C63.4406 42.7119 60.2455 46.1216 56.1414 46.1216H43.6408C43.9731 47.4103 44.6194 48.6225 45.3019 49.9024Z" fill="#DF1F12"/>
</svg>
