<svg width="64" height="72" viewBox="0 0 64 72" fill="none" xmlns="http://www.w3.org/2000/svg">
<path fill-rule="evenodd" clip-rule="evenodd" d="M3.49034 40.223H13.3214C14.9503 40.223 16.2707 38.9026 16.2707 37.2737V7.78045C16.2707 6.15156 14.9503 4.83113 13.3214 4.83113H3.49034C1.86145 4.83113 0.541016 6.15156 0.541016 7.78045V37.2737C0.541016 38.9026 1.86145 40.223 3.49034 40.223ZM45.3019 49.9025C46.4637 52.0815 47.7302 54.4569 47.7302 57.7405C47.7302 66.7669 41.8315 67.75 38.8822 67.75C36.4191 67.75 35.2747 62.9879 34.7238 60.6953L34.7124 60.6478C34.0727 57.9853 33.4111 55.2321 31.5919 53.4094C29.7105 51.5249 28.2508 49.3967 26.7232 47.1693C25.0109 44.6727 23.2132 42.0516 20.6404 39.5094C20.3607 39.2329 20.2032 38.8555 20.2032 38.4622V12.1924C20.2032 11.3886 20.8475 10.7327 21.6512 10.718C23.5965 10.6822 26.1604 9.60227 28.1214 8.72989C32.0236 6.99384 36.88 4.83334 42.8139 4.83125L43.1635 4.83113C48.4203 4.83113 54.6367 4.88188 57.1449 8.48546C58.1762 9.96712 58.4286 11.8076 57.9004 13.9702C59.9051 16.0658 60.9804 19.9748 59.9136 23.157C62.0697 26.0365 62.2662 30.055 61.0574 32.9228L61.0709 32.9363C62.5325 34.4046 63.4701 36.7777 63.4598 38.9821C63.4406 42.712 60.2455 46.1216 56.1414 46.1216H43.6408C43.9731 47.4104 44.6194 48.6226 45.3019 49.9025Z" fill="#98A2B3"/>
</svg>
